<svg xmlns="http://www.w3.org/2000/svg" viewBox="0 0 112.37 16.49"><defs><style>.cls-1{fill:#36b397;}</style></defs><title>border-img_2</title><g id="Laag_2" data-name="Laag 2"><g id="Laag_1-2" data-name="Laag 1"><path class="cls-1" d="M97.93,4.4c1.41-.11,2.83-.24,4.24-.32a.87.87,0,0,0,.84-.65,7.34,7.34,0,0,1,2.43-3c.48-.36,1.1-.67,1.62-.16s.14,1.09-.2,1.59a12.55,12.55,0,0,1-2.15,1.88c.39.16.71,0,1-.07.48,0,1.06-.17,1.12.51s-.47.6-.93.65c-1.12.12-2.23.27-3.47.42a17.29,17.29,0,0,1,1.48,1c.44.36.81.83.51,1.44s-1,.56-1.56.38a5.66,5.66,0,0,1-2.69-1.87,1.6,1.6,0,0,0-1.61-.67c-1.13.14-2.27.2-3.6.32a15.48,15.48,0,0,1,2.4,1.4A5.12,5.12,0,0,1,99.25,10c.11.5.14,1-.31,1.28a1,1,0,0,1-1.21-.19,18.19,18.19,0,0,1-4.35-4.49A1.14,1.14,0,0,0,92.2,6a202.28,202.28,0,0,1-20.75.22c-7.77-.36-15.55-.79-23.33-1.09-10-.4-20.07-.24-29.87,2.51A2.15,2.15,0,0,0,16.5,9.1a6.36,6.36,0,0,1-2.56,3.32c-.45.28-1,.53-1.43.14s-.23-1,0-1.51a9.75,9.75,0,0,1,2.2-2.4c-1.65.45-3.06.47-3.76,2.08a6.08,6.08,0,0,1-2.22,2.58c-.39.27-.87.56-1.29.15s-.12-.89.16-1.27A11.87,11.87,0,0,0,8.5,11a8.07,8.07,0,0,0-3.27,2c-.26.3-.53.53-.9.24s-.24-.72,0-1,.89-.83,1.38-1.28c-.63-.1-1.2-.17-1.75-.31-.34-.08-.73-.26-.67-.7s.41-.47.71-.55a5.12,5.12,0,0,1,2.81-.19c1.86.57,3.33-.38,5.1-.93a14.67,14.67,0,0,1-3-.79c-.43-.24-.88-.54-.77-1.06s.65-.61,1.14-.62a9.08,9.08,0,0,1,4.43,1.12A3.1,3.1,0,0,0,16.24,7,73.75,73.75,0,0,1,30.51,4.27,131.2,131.2,0,0,1,47.1,3.93c6.52.25,13,.5,19.54.91,7.51.46,15,.47,22.53.19,1.65-.06,3.31-.2,5-.27A1.59,1.59,0,0,0,95.49,4a7.57,7.57,0,0,1,3.22-2.71c.47-.2,1-.42,1.42.08s0,1-.26,1.4A7,7,0,0,1,97.93,4.4Z"/><path class="cls-1" d="M109.2,4.32c-.47-.17-1.49.33-1.65-.39s.93-.73,1.43-1.08a4.22,4.22,0,0,1,2.14-.58c.52,0,1.11,0,1.23.63s-.36.91-.83,1.13A4.49,4.49,0,0,1,109.2,4.32Z"/><path class="cls-1" d="M.8,16.49a.71.71,0,0,1-.72-.31c-.19-.31,0-.54.18-.73a11.48,11.48,0,0,1,3-2.1c.3-.16.77-.21.74.37C3.94,14.51,1.63,16.48.8,16.49Z"/></g></g></svg>