<svg xmlns="http://www.w3.org/2000/svg" viewBox="0 0 409.91 370.11"><defs><style>.cls-1{fill:#3e878e;}.cls-2{fill:#e9474b;}.cls-3{fill:#aa192d;}.cls-4{fill:#4ba1af;}.cls-5{fill:#cac7c4;}.cls-6{fill:#c9c7c3;}.cls-7{fill:#bd5658;}.cls-8{fill:#fefefe;}.cls-9{font-size:36px;font-family:Roboto-Regular, Roboto;}.cls-11,.cls-9{fill:#fff;}.cls-10{letter-spacing:-0.01em;}</style></defs><title>brush-2</title><g id="Laag_2" data-name="Laag 2"><g id="Laag_1-2" data-name="Laag 1"><path class="cls-1" d="M220.94,139.9c5.67,9,5.73,10.08-.87,18.44a90.64,90.64,0,0,1-23.55,21.26c-8.55,5.29-16.68,20.2-8.62,33.21,9.65,15.58,20.7,30.16,31.37,45,11.25,15.66,22.94,31,34,46.83A68.65,68.65,0,0,1,265.31,336c1.51,12.79-3.6,23.54-13.78,29.28-12.52,7.06-23.27,6.41-34.25-2.45-11.82-9.53-18.35-22.49-23.26-36.51-11.38-32.47-22.11-65.16-34.79-97.16-4.86-12.25-20.27-18.28-32.63-12.81a92,92,0,0,1-29.92,7.12c-10.67.88-11.91-.11-16.17-9.94,2.19-3.92,6.3-5.28,9.91-7.18q60.81-32,121.7-63.91c1.32-.7,2.64-1.42,4-2C217.68,139.77,219.24,139.17,220.94,139.9Z"/><path class="cls-2" d="M158.65,21.16l36.6,69.57c-.6,2.62-2.84,3.59-4.88,4.66Q126.44,129,62.44,162.53c-1.77.93-3.55,1.88-5.64,1.82-2.76-.55-3.33-3.07-4.38-5.06q-20.37-38.7-40.66-77.42c-1.24-2.5.49-2.91,2.28-3,3.2-.24,5.76,1.28,8.15,3.22,4.57,3.72,8,8.47,11.66,13a30.4,30.4,0,0,0,7.66,7.1c5.86,3.54,12.12.28,12.64-6.5a35.88,35.88,0,0,0-.45-8.47,27.71,27.71,0,0,1-.52-6,10.56,10.56,0,0,1,6.22-9.51c3.76-1.87,7.16-1,10.31,1.3a61.16,61.16,0,0,1,9.88,9.15A161.82,161.82,0,0,0,91.67,94.77a18.75,18.75,0,0,0,9.7,4.83c8.31,1.37,13.76-3.88,12.41-12.17-.8-4.93-2.35-9.73-3-14.69-1-8.16,2.52-13.46,9.38-14.49A10.49,10.49,0,0,1,127.8,60a57.39,57.39,0,0,1,8.08,6.67c3.09,2.93,6.56,4.59,10.89,3,4.59-1.67,5.95-5.41,6.32-9.84.46-5.52-.44-11-.77-16.45-.33-5.32-.89-10.68.17-15.94C153.14,24.24,154,20.69,158.65,21.16Z"/><path class="cls-3" d="M158.65,21.16c-3.4,1.22-4.72,3.87-5.13,7.25-.91,7.5.14,14.94.72,22.38a46.69,46.69,0,0,1-.12,11.93c-1.54,8.66-10.8,11.93-17.55,6.25-2.92-2.45-5.78-5-8.65-7.48-3.69-3.23-7.88-2.76-11.66-.78-3.51,1.84-4.78,5.6-4.33,9.43.58,4.92,1.6,9.8,2.66,14.65,1.14,5.23,1.85,10.35-3.17,14s-11.69,3.28-17.3-.56c-6-4.07-10.51-9.6-15.26-14.91a85.43,85.43,0,0,0-9.3-8.95C66.69,72,63.74,70.77,60,72.66s-5.79,4.94-5.57,9.16.76,8.58,1.14,12.87c.44,5-2.08,8.06-6.57,9.94-4.06,1.69-7.14-.21-10-2.51-6-4.79-9.77-11.64-15.22-17-3.37-3.29-6.82-6.44-12.15-5-.13.6-.44.72-.94.36C7.37,74.36,4.17,68.14.67,62.09c-1.56-2.7-.19-3.49,1.89-4.32q20.16-8.06,40.29-16.16Q68.77,31.17,94.67,20.69q24.75-10,49.48-20.07c2-.81,3.55-1.23,4.79,1.38C152,8.46,155.4,14.78,158.65,21.16Z"/><path class="cls-4" d="M74.71,202.83,60.28,175.39c.91-2.42,3.08-3.42,5.13-4.49q64.49-33.9,129-67.7c2-1.08,4.1-2.31,6.6-1.63L215.42,129c-.24,3.74-3.43,4.67-6,6-16.63,8.82-33.32,17.53-50,26.28-24.2,12.69-48.36,25.46-72.63,38C83.1,201.26,79.49,204.27,74.71,202.83Z"/><path class="cls-5" d="M201,101.57q-34.54,18-69.1,36.1-35.85,18.81-71.65,37.72l-5.5-10.81a1.42,1.42,0,0,1,1.31-.9c3.42-1.7,6.88-3.33,10.26-5.1Q128.44,126,190.49,93.45c1.62-.85,3.18-1.81,4.76-2.72Z"/><path class="cls-6" d="M74.71,202.83c3.47-1.48,7.06-2.74,10.39-4.48q62.6-32.74,125.11-65.63c1.9-1,4-1.73,5.21-3.71l5.52,10.89q-66.72,35-133.45,70c-2.33,1.22-4.29,3.15-7,3.68Z"/><path class="cls-7" d="M56.09,163.68l-1.31.9L10.68,80.52l.94-.36q21,40.22,42.06,80.4A22.24,22.24,0,0,0,56.09,163.68Z"/><path class="cls-8" d="M249.36,330.89a15.69,15.69,0,0,1-27.88,14.38c-4.07-7.83-1-17.66,6.61-21.43A15.9,15.9,0,0,1,249.36,330.89Z"/><text class="cls-9" transform="translate(249.57 254.48)">M<tspan class="cls-10" x="31.43" y="0">O</tspan><tspan x="55.79" y="0">VE ME</tspan></text><path class="cls-11" d="M344.24,327.83c-3.34,0-6.69,0-10,0-.47,0-.61.11-.6.6,0,2.8,0,5.59,0,8.39a2,2,0,0,1-1.79,1.95,2.29,2.29,0,0,1-1.87-.69c-2.89-2.6-5.81-5.17-8.69-7.79-2.66-2.4-5.28-4.85-7.91-7.29a1.87,1.87,0,0,1-.66-2.17,2.4,2.4,0,0,1,.73-.88c3-2.93,6.12-5.73,9.24-8.53,2.55-2.29,5.09-4.58,7.73-6.77a1.8,1.8,0,0,1,1.92-.32,1.65,1.65,0,0,1,1.22,1.57c0,.56.07,1.13.07,1.7,0,2.35,0,4.7,0,7.05,0,.4.11.5.51.5h20.24c.45,0,.53-.15.53-.55q0-10.09,0-20.19c0-.43-.11-.54-.54-.54-2.85,0-5.71,0-8.57,0a1.93,1.93,0,0,1-1.78-1.41,2.27,2.27,0,0,1,.38-2c1.24-1.53,2.59-3,3.91-4.41,3.59-4,7.12-8,10.8-11.86.22-.24.45-.47.68-.7a1.75,1.75,0,0,1,2.81,0c1.87,1.86,3.65,3.8,5.42,5.75,3.25,3.59,6.56,7.13,9.69,10.82a2.8,2.8,0,0,1,.93,1.79,2,2,0,0,1-1.94,2c-2.86,0-5.71,0-8.57,0-.42,0-.55.09-.55.53q0,10.1,0,20.19c0,.46.13.56.58.56q10.07,0,20.13,0c.5,0,.58-.17.57-.62q0-3.52,0-7c0-.61.09-1.21.12-1.82a1.86,1.86,0,0,1,2.9-1.15c1.59,1.35,3.19,2.7,4.75,4.08C400.8,312.3,405,316,409,319.9c1.21,1.18,1.21,2,0,3.17-5.41,5.1-10.94,10.07-16.5,15a2.26,2.26,0,0,1-3.37-.16,1,1,0,0,1-.28-.76c0-2.92,0-5.83,0-8.75,0-.45-.1-.58-.57-.58q-10,0-20.12,0c-.5,0-.6.15-.6.62q0,10,0,20.06c0,.48.12.6.6.6,2.82,0,5.63,0,8.45,0a1.88,1.88,0,0,1,1.82,1.43,2.29,2.29,0,0,1-.47,2.17c-4.72,5.13-9.32,10.37-14.1,15.43-.48.5-1,1-1.48,1.45a1.39,1.39,0,0,1-2.11.1,19.48,19.48,0,0,1-2.59-2.47c-4.56-4.91-9-9.93-13.5-14.91a2.48,2.48,0,0,1,.06-2.29,1.94,1.94,0,0,1,1.74-.94c2.78.07,5.55,0,8.33,0,.43,0,.58-.07.58-.55q0-10.07,0-20.13c0-.51-.15-.6-.61-.6C350.93,327.84,347.59,327.83,344.24,327.83Z"/></g></g></svg>