<svg xmlns="http://www.w3.org/2000/svg" viewBox="0 0 289.42 261.32"><defs><style>.cls-1{fill:#3e878e;}.cls-2{fill:#e9474b;}.cls-3{fill:#aa192d;}.cls-4{fill:#4ba1af;}.cls-5{fill:#cac7c4;}.cls-6{fill:#c9c7c3;}.cls-7{fill:#bd5658;}.cls-8{fill:#fefefe;}.cls-9{font-size:25.42px;font-family:Roboto-Regular, Roboto;}.cls-11,.cls-9{fill:#fff;}.cls-10{letter-spacing:-0.01em;}</style></defs><title>brush-3</title><g id="Laag_2" data-name="Laag 2"><g id="Laag_1-2" data-name="Laag 1"><path class="cls-1" d="M156,98.78c4,6.34,4,7.11-.62,13a63.86,63.86,0,0,1-16.63,15c-6,3.73-11.77,14.26-6.08,23.45,6.81,11,14.61,21.29,22.15,31.78,7.94,11.06,16.19,21.89,24,33.06a48.41,48.41,0,0,1,8.52,22.16c1.07,9-2.54,16.62-9.72,20.67-8.85,5-16.44,4.52-24.19-1.73-8.34-6.73-12.95-15.88-16.42-25.78-8-22.92-15.61-46-24.57-68.59-3.43-8.66-14.3-12.91-23-9.05a65.28,65.28,0,0,1-21.13,5c-7.53.62-8.41-.08-11.42-7,1.55-2.77,4.45-3.73,7-5.08q42.94-22.61,85.93-45.12c.93-.49,1.86-1,2.83-1.42A4.07,4.07,0,0,1,156,98.78Z"/><path class="cls-2" d="M112,14.94l25.84,49.12c-.43,1.85-2,2.53-3.45,3.29Q89.28,91.1,44.09,114.76a8.18,8.18,0,0,1-4,1.28c-2-.39-2.34-2.17-3.09-3.57Q22.63,85.14,8.31,57.8c-.88-1.76.34-2,1.6-2.14,2.26-.17,4.07.91,5.76,2.27,3.23,2.63,5.64,6,8.23,9.17a21.48,21.48,0,0,0,5.41,5c4.14,2.5,8.55.2,8.93-4.59a25.51,25.51,0,0,0-.33-6,19.8,19.8,0,0,1-.36-4.21,7.47,7.47,0,0,1,4.39-6.71c2.65-1.32,5.06-.69,7.28.91a43.15,43.15,0,0,1,7,6.47,115.84,115.84,0,0,0,8.54,8.91,13.05,13.05,0,0,0,6.84,3.41c5.87,1,9.72-2.73,8.77-8.59-.57-3.48-1.66-6.87-2.1-10.37-.71-5.76,1.79-9.5,6.63-10.24a7.51,7.51,0,0,1,5.37,1.22,40.87,40.87,0,0,1,5.7,4.71c2.18,2.07,4.63,3.24,7.69,2.13,3.24-1.17,4.2-3.81,4.46-6.94.33-3.9-.31-7.75-.55-11.62s-.62-7.54.13-11.25C108.13,17.11,108.74,14.61,112,14.94Z"/><path class="cls-3" d="M112,14.94c-2.41.86-3.33,2.73-3.62,5.12-.65,5.3.1,10.55.5,15.8a32.94,32.94,0,0,1-.08,8.42c-1.09,6.12-7.63,8.43-12.39,4.42-2.06-1.73-4.08-3.51-6.11-5.29-2.6-2.27-5.56-1.94-8.23-.54-2.48,1.29-3.38,4-3.06,6.65.41,3.48,1.13,6.92,1.88,10.34.8,3.7,1.31,7.31-2.24,9.91s-8.25,2.32-12.22-.39C62.25,66.51,59,62.6,55.68,58.85a60.32,60.32,0,0,0-6.57-6.32c-2-1.67-4.11-2.56-6.74-1.23a6.44,6.44,0,0,0-3.93,6.47c.15,3,.54,6.06.8,9.09.31,3.56-1.46,5.69-4.64,7-2.86,1.2-5-.15-7.07-1.76-4.24-3.39-6.9-8.22-10.75-12C14.4,57.8,12,55.58,8.21,56.6c-.1.42-.32.5-.67.25C5.2,52.5,3,48.11.48,43.84c-1.11-1.91-.14-2.46,1.33-3.05Q16,35.09,30.25,29.38,48.57,22,66.84,14.6,84.32,7.54,101.78.44c1.41-.57,2.5-.87,3.38,1C107.33,6,109.72,10.44,112,14.94Z"/><path class="cls-4" d="M52.75,143.21q-5.09-9.69-10.19-19.38c.64-1.7,2.17-2.41,3.62-3.17q45.54-23.93,91.1-47.8c1.44-.76,2.9-1.62,4.66-1.14L152.1,91.09c-.17,2.64-2.42,3.3-4.23,4.26-11.74,6.22-23.53,12.37-35.3,18.55-17.08,9-34.14,18-51.28,26.84C58.67,142.1,56.12,144.23,52.75,143.21Z"/><path class="cls-5" d="M141.94,71.72Q117.55,84.45,93.15,97.2q-25.32,13.27-50.59,26.63l-3.88-7.62a1,1,0,0,1,.92-.65c2.42-1.19,4.86-2.34,7.25-3.59Q90.68,89,134.5,66c1.14-.6,2.24-1.28,3.36-1.92Z"/><path class="cls-6" d="M52.75,143.21c2.45-1.05,5-1.93,7.34-3.16q44.19-23.13,88.33-46.34c1.34-.71,2.83-1.22,3.68-2.62l3.9,7.69q-47.11,24.71-94.23,49.4c-1.64.87-3,2.23-4.93,2.61Z"/><path class="cls-7" d="M39.6,115.56l-.92.65L7.54,56.85l.66-.25Q23.05,85,37.9,113.37A15.32,15.32,0,0,0,39.6,115.56Z"/><path class="cls-8" d="M176.06,233.63a11.07,11.07,0,0,1-19.68,10.15,11.07,11.07,0,1,1,19.68-10.15Z"/><text class="cls-9" transform="translate(176.21 179.68)">M<tspan class="cls-10" x="22.19" y="0">O</tspan><tspan x="39.39" y="0">VE ME</tspan></text><path class="cls-11" d="M243.06,231.47c-2.37,0-4.73,0-7.09,0-.33,0-.43.08-.42.42,0,2,0,4,0,5.93a1.39,1.39,0,0,1-1.27,1.38,1.63,1.63,0,0,1-1.32-.49c-2-1.84-4.1-3.65-6.14-5.5-1.87-1.7-3.72-3.43-5.58-5.15a1.31,1.31,0,0,1-.46-1.53,1.62,1.62,0,0,1,.51-.62c2.12-2.07,4.32-4.05,6.53-6,1.79-1.61,3.59-3.23,5.45-4.78a1.26,1.26,0,0,1,1.36-.22,1.17,1.17,0,0,1,.86,1.11c0,.4.05.79.05,1.19,0,1.66,0,3.33,0,5,0,.28.08.35.36.35H250.2c.32,0,.37-.11.37-.39q0-7.12,0-14.26c0-.3-.07-.38-.38-.38-2,0-4,0-6.05,0a1.36,1.36,0,0,1-1.25-1,1.6,1.6,0,0,1,.26-1.38C244,204,245,203,245.91,202c2.54-2.8,5-5.64,7.63-8.38l.48-.49a1.23,1.23,0,0,1,2,0c1.32,1.31,2.58,2.68,3.83,4.06,2.3,2.53,4.63,5,6.84,7.64a2,2,0,0,1,.66,1.26,1.43,1.43,0,0,1-1.37,1.39c-2,0-4,0-6,0-.3,0-.39.07-.39.38q0,7.13,0,14.25c0,.33.09.4.41.4h14.21c.36,0,.41-.12.41-.43q0-2.49,0-5c0-.43.07-.86.09-1.29a1.31,1.31,0,0,1,2.05-.81q1.68,1.42,3.35,2.88c2.95,2.62,5.9,5.24,8.74,8,.85.83.85,1.43,0,2.24-3.83,3.6-7.73,7.1-11.66,10.59a1.6,1.6,0,0,1-2.38-.12.74.74,0,0,1-.19-.53c0-2.06,0-4.12,0-6.18,0-.32-.07-.41-.4-.41H259.94c-.35,0-.42.11-.42.44q0,7.08,0,14.16c0,.34.09.43.42.42h6a1.34,1.34,0,0,1,1.29,1,1.6,1.6,0,0,1-.34,1.53c-3.33,3.62-6.58,7.32-10,10.9-.33.35-.68.69-1,1a1,1,0,0,1-1.49.07,13.62,13.62,0,0,1-1.82-1.74c-3.23-3.47-6.37-7-9.54-10.53a1.78,1.78,0,0,1,0-1.62,1.35,1.35,0,0,1,1.23-.66c2,0,3.92,0,5.88,0,.31,0,.42,0,.42-.39q0-7.09,0-14.21c0-.35-.12-.42-.44-.42C247.78,231.48,245.42,231.47,243.06,231.47Z"/></g></g></svg>