<svg xmlns="http://www.w3.org/2000/svg" viewBox="0 0 56.56 54.35"><defs><style>.cls-1{fill:#fcc02f;}.cls-2{fill:#fed734;}.cls-3{fill:#fcbf2f;}.cls-4{fill:#f2aa28;}.cls-5{fill:#fbbb2c;}.cls-6{fill:#e7a12a;}.cls-7{fill:#fcf088;}.cls-8{fill:#cd8b28;}.cls-9{fill:#ce912f;}.cls-10{fill:#c79139;}.cls-11{fill:#fed232;}.cls-12{fill:#e9a62a;}.cls-13{fill:#ef930e;}.cls-14{fill:#eaa222;}.cls-15{fill:#ffd330;}.cls-16{fill:#fee761;}</style></defs><title>cap</title><g id="Laag_2" data-name="Laag 2"><g id="Laag_1-2" data-name="Laag 1"><path class="cls-1" d="M15.33,4a3.13,3.13,0,0,1,1.75-2.06A8.39,8.39,0,0,1,20.34.84a1.67,1.67,0,0,0,1,1.37,8.82,8.82,0,0,1,.93.56c.22.17.53.36.44.65s-.5.27-.8.28a3.09,3.09,0,0,1-.74-.12,9.38,9.38,0,0,1-2.64-.75c-.52-.27-.85.08-1.17.38s-.19.65,0,1a2.16,2.16,0,0,0,.74.79A16.25,16.25,0,0,1,20.38,6.9,1.44,1.44,0,0,1,21,8.37a2.62,2.62,0,0,0,0,.74,7.27,7.27,0,0,1-.18,2.82,22.86,22.86,0,0,0-.6,4.88,2.94,2.94,0,0,1-.12,1.07.59.59,0,0,0,.33.89c.42.19.85.37,1.21-.1a6.3,6.3,0,0,1,.89-1.1c.32-.25.69-.47,1.07-.22s.2.66,0,1c-.29.47.08,1-.22,1.46a.55.55,0,0,1-.37.1c-.25,0-.61-.44-.73.12-.1.4.13.58.52.71a19,19,0,0,0,4.74.73,44.74,44.74,0,0,0,5.07-.23,3.27,3.27,0,0,1,1.08.07,2.11,2.11,0,0,0,2.54-.86c.21-.29.42-.57.8-.4a.83.83,0,0,1,.49,1,7.23,7.23,0,0,0-.24,1.23,4.79,4.79,0,0,0,.22,1.63,8.38,8.38,0,0,1,.13,2.83,3.38,3.38,0,0,0,.84,2.54,3.06,3.06,0,0,0,1.95,1,13.08,13.08,0,0,1,3.27.65,1.89,1.89,0,0,0,1.08,0,9.36,9.36,0,0,1,2.74.18c.59.07.71.5.35,1a1.94,1.94,0,0,1-1.11.72,1.33,1.33,0,0,0-.68.29c-.12.12-.24.26-.14.44s.25.12.38.08c1.68-.55,3.5-.6,5-1.65a9.09,9.09,0,0,1,1.91-.82,1,1,0,0,1,1.17.19c.34.35.23.77.09,1.18-.36,1-1.35,1.38-1.95,2.14a5,5,0,0,1-.92.72,26.11,26.11,0,0,1-3.65,2,44.33,44.33,0,0,1-4.24,1.73c-.35.17-.56.27-.18.7s.25,2.12-.33,2.81c-.2.24-.43.44-.62.68A1.17,1.17,0,0,0,42.56,45a1.19,1.19,0,0,1,.26,1,2.78,2.78,0,0,0,.32,2.23,1.74,1.74,0,0,1,.2,1,1.05,1.05,0,0,1-.08.35A7.08,7.08,0,0,0,42.79,51c-.17.43.09.67.42.87.38.37,1,.44,1.3.85a1,1,0,0,1-1.19.35,2.59,2.59,0,0,0-1.25-.42c-.89-.16-1.78-.35-1.89-1.53,0-.43-.41-.56-.8-.59a11.92,11.92,0,0,1-1.34,0c-.75-.14-1-.51-.83-1.25a2.2,2.2,0,0,0,0-1.39,1.46,1.46,0,0,1,0-.83,1.14,1.14,0,0,0,.05-.78,3.15,3.15,0,0,0-1.82,1.46c-.44.78-.74,1.63-1.26,2.37-.15.22-.29.54-.63.44s-.38-.38-.42-.67a7.37,7.37,0,0,0-.19-1.32c-.14-.38,0-.67.39-.75s.62-.41.78-.79a15.79,15.79,0,0,0,1-2.66.75.75,0,0,1,.3-.48,5,5,0,0,0,2.22-3.48.81.81,0,0,1,.88-.81,6.89,6.89,0,0,0,2.93-.88c1.51-.62,3-1.23,4.57-1.81,1.92-.74,4-1.24,5.5-2.85.18-.19.54-.35.35-.66s-.47-.1-.69,0c-1.17.45-2.43.64-3.6,1.1a19,19,0,0,1-2.12.43c-.75.18-1.28-.64-1-1.47A5.23,5.23,0,0,1,45,32.28a2.11,2.11,0,0,1-1.79,0,7,7,0,0,0-2.13-.43,19.18,19.18,0,0,1-3.84-.75c-1.49-.35-2.81-2.45-2.8-4a8.32,8.32,0,0,1,.31-2.38,2.35,2.35,0,0,0-1.54-2.41,3.9,3.9,0,0,0-1.4-.2c-1.76,0-3.52,0-5.27,0C25.28,22.2,24,22,22.72,22a2.17,2.17,0,0,0-1.42.38,1.9,1.9,0,0,1-1.11.3c-.6.05-.68.33-.57.91a19.82,19.82,0,0,1,.79,4.9,1.92,1.92,0,0,1-1.31,1.85c-.52.21-1,.52-1.48.77-1.29.64-2.58,1.32-4.12.87a2.69,2.69,0,0,0-1.64.25,5.2,5.2,0,0,1-1.36.33,6,6,0,0,1,1.62,2c.22.59.05.83-.59.86a1.84,1.84,0,0,1-.41,0c-2.43-.7-5-1-7.27-2.15-.17-.08-.38-.2-.54,0s0,.42.14.59A7.87,7.87,0,0,0,6.8,36.17a5.94,5.94,0,0,1,1.83,1,5.8,5.8,0,0,0,2.47,1,10.88,10.88,0,0,1,2.42.92,6.7,6.7,0,0,0,1.86.43c.92.23,1.07.42,1.17,1.37a10.23,10.23,0,0,1,.11,2.65c.16.08.2,0,.28-.1a.79.79,0,0,1,1,0c.34.34.08.72-.15,1a4.91,4.91,0,0,0-1.26,3,15.83,15.83,0,0,1,2.49-4c1.2-1.28,1.49-1.38,2.76-.16a14,14,0,0,1,2.64,3.65c.23.43.4.84.93,1a.4.4,0,0,1,.35.41c0,.22-.19.32-.37.4a1,1,0,0,1-1.42-.43,22,22,0,0,0-3-3.88c-.38-.42-.66-.52-1.08-.07a6.28,6.28,0,0,0-2.14,4.42,3.64,3.64,0,0,1-.65,2A2.67,2.67,0,0,0,16.53,52a1.26,1.26,0,0,1-1.32,1.33,3.29,3.29,0,0,1-1.81-.2c-.4-.2-.17.25-.33.26a2.38,2.38,0,0,1-1.47,0,21.13,21.13,0,0,1-4.77-1.08c-.27-.27-.13-.51.06-.73s.36-.6,0-.93-.36-.82,0-1.25c.67-.82.66-.85-.13-1.62a1.42,1.42,0,0,1,.14-2,.49.49,0,0,1,.77.21A3.19,3.19,0,0,0,9,47.1a2.92,2.92,0,0,1-.8-1.81A6.36,6.36,0,0,0,7.05,42c-.53-.69-.23-1.46-.16-2.19.05-.55-.11-.76-.58-1.09-1.71-1.23-3.6-2.21-5-3.79a3.14,3.14,0,0,1-.64-1.94c0-.16,0-.31,0-.46a5.59,5.59,0,0,1,3-2.8,4.13,4.13,0,0,1,4.25.58,1.71,1.71,0,0,0,1.83.14c.66-.3,1.35-.51,2-.78a2.81,2.81,0,0,0,2.08-2.7c.05-1.81.44-3.6.51-5.41A9.8,9.8,0,0,1,15,19c.12-.35.17-.62-.31-.75s-.65-.48-.42-1.08A6.46,6.46,0,0,0,15,14a2.33,2.33,0,0,1,.18-1.07c.69-1.92.52-4,.91-5.94a1.5,1.5,0,0,0-.3-1.26A2,2,0,0,1,15.33,4Z"/><path class="cls-2" d="M23.36,19.75c-.05-.65-.28-1.31.26-1.88a.26.26,0,0,0,0-.38.44.44,0,0,0-.47,0,2.39,2.39,0,0,0-1.25,1.38c-.37.76-.91.29-1.37.23s-.89-.69-.83-.76c.7-.85.36-1.86.38-2.75.07-1.93.83-3.74.82-5.67,0-.62-.3-1.24,0-1.89a.66.66,0,0,0-.22-.59c-.82-.58-1.34-1.49-2.24-2a3.51,3.51,0,0,1-1.07-.92A1.21,1.21,0,0,1,17.9,2.4c.27-.1.47.12.69.22a9.72,9.72,0,0,0,3.67.87,1.77,1.77,0,0,0,.39-.05,3.47,3.47,0,0,0-1.41-1,2.17,2.17,0,0,1-1.07-1.12c-.12-.26,0-.34.17-.48C20.92.52,21.6.7,22.2.47a1.5,1.5,0,0,1,1,0c.05.42-.29.51-.55.64s-.49.47-.06.72c1.82,1.09,3.68,2,5.9,1.51a1.29,1.29,0,0,1,.33,0c1.54.23,2.71-.63,3.93-1.34.77-.45.75-.46.16-1.1a.4.4,0,0,1-.13-.37,3.08,3.08,0,0,1,1.48,0A6,6,0,0,1,36.45,1c-.92.56-1.51,1.55-2.55,2a3.28,3.28,0,0,0,1.65-.28,10,10,0,0,1,2-.55c.64-.1,1,.21.89.84a2.62,2.62,0,0,1-1.18,2c-.6.34-1.16.77-1.75,1.14a2.75,2.75,0,0,0-1.39,2.5c0,1.92,0,3.84.18,5.76a2.25,2.25,0,0,0,.3.95c.47.81.17,1.38-.76,1.52a2.82,2.82,0,0,1-.82-.07c-.19,0-.41-.14-.53.08s.06.37.16.53a2.69,2.69,0,0,0,.2.27c.82,1.06.74,1.51-.42,2.26a8.26,8.26,0,0,1-2.7.4,28.57,28.57,0,0,1-5.31-.2A1.81,1.81,0,0,1,23.36,19.75Z"/><path class="cls-3" d="M32.57,19.74c.17-.19.34-.37.49-.57a.64.64,0,0,0,0-1,1.66,1.66,0,0,1-.32-.38c-.24-.38-.83-.69-.53-1.2s.81,0,1.21,0a1.29,1.29,0,0,0,1.21-.39c.38-.4-.08-.63-.26-.91a1.56,1.56,0,0,1-.26-.7,63,63,0,0,1-.15-6.59A2.63,2.63,0,0,1,35.38,6a16.47,16.47,0,0,0,2.15-1.39,2.53,2.53,0,0,0,.73-1.87c0-.48-.33-.43-.72-.36-1.07.2-2,.68-3.11.92a4.08,4.08,0,0,1-1.18,0,2.81,2.81,0,0,1,1-.86,2.68,2.68,0,0,0,1.36-1.19c.17-.41.59-.2.89-.29a6.21,6.21,0,0,1,3,1.38,2,2,0,0,1-.11,2.35,5.58,5.58,0,0,0-1,4.28c.32,1.6.36,3.26.66,4.87a15.41,15.41,0,0,0,.58,2,6.76,6.76,0,0,1,.31,1.72c0,.3,0,.57-.35.69-.48.16-.38.43-.3.84.23,1.25.63,2.45.75,3.74s.36,2.63.41,4a1.38,1.38,0,0,0,.43.8,1.73,1.73,0,0,1,.52.75,1.41,1.41,0,0,0,1.37,1.14c1.21.17,2.39.55,3.58.81A7.24,7.24,0,0,0,50.07,30c.94-.3,1.81-.77,2.77-1a4.11,4.11,0,0,1,1.81,1.14c-.12.3.05.55.17.79a1.94,1.94,0,0,1-.26,2.13,10,10,0,0,1-2.28,2.17c-.23.14-.48.32-.77.1l2.15-1.92a1.87,1.87,0,0,0,.65-.85c.11-.36.39-.76,0-1.08a1.12,1.12,0,0,0-1.25,0,27.7,27.7,0,0,1-3.85,1.76c-1,.3-2.14.48-3.21.75-.45.11-.61-.12-.4-.58a1,1,0,0,1,.91-.74,1.32,1.32,0,0,0,.63-.18c.34-.22.84-.45.74-.9s-.63-.17-1-.27c-1-.3-2.14.16-3.11-.13a14.87,14.87,0,0,0-3.24-.64,3.42,3.42,0,0,1-2.75-1.74,2.17,2.17,0,0,1-.39-1.33c0-.92,0-1.84,0-2.76a1.58,1.58,0,0,0-.09-.73,3.24,3.24,0,0,1,0-2.88.7.7,0,0,0-.34-.93c-.39-.19-.49.13-.59.46s-1.69,1.32-2.15,1.1a5.74,5.74,0,0,0-3.57-.1,7.53,7.53,0,0,1-2.55,0,7.76,7.76,0,0,0-1.67,0,4.78,4.78,0,0,1-2.83-.49,1.51,1.51,0,0,0-.56-.16c-1.22-.2-1.42-.66-.66-1.81.05.4.4.42.6.63,3.45,2.07,6.94,1.58,10.44.18C33.16,19.9,32.83,20,32.57,19.74Z"/><path class="cls-4" d="M52.84,29a2.42,2.42,0,0,0-.88.6.79.79,0,0,1-.38.31c-1.81.17-3.49,1.25-5.43.59a42.59,42.59,0,0,0-4.19-1c-.43-.1-.69-.29-.7-.78a1,1,0,0,0-.32-.66,2.42,2.42,0,0,1-.83-2.32,4.19,4.19,0,0,0-.39-2.44.54.54,0,0,1-.08-.4c.42-1.28-.53-2.34-.53-3.55A.5.5,0,0,0,39,19c-.48-.56-.28-.86.38-.94.37-.05.28-.24.3-.51A8.88,8.88,0,0,0,39,14.83a24.27,24.27,0,0,1-.74-4.21A22.83,22.83,0,0,0,38,7.89a1.54,1.54,0,0,1,0-.74,8.31,8.31,0,0,1,1.49-3.06c.33-.36.1-.89,0-1.33,0-.15-.21-.27,0-.43a2.3,2.3,0,0,1,1,1.68,7.29,7.29,0,0,0,.43,2.36A97.36,97.36,0,0,1,43,16.29c.48,3.41,1.25,6.74,1.89,10.11a3.67,3.67,0,0,0,2.49,3.06c-.64-.63-1.64-.87-2-1.83-.1-.26-.26-.5,0-.77A19.59,19.59,0,0,1,52.84,29Z"/><path class="cls-5" d="M51.51,35.33a6.34,6.34,0,0,0,3.27-3.2c.23-.49-.11-.91-.26-1.34-.08-.25-.34-.52.13-.65.24.33.69.5.75,1a2.83,2.83,0,0,1,.23.57,5.43,5.43,0,0,1-2.91,4.4,8.34,8.34,0,0,0-2.17,1.55,1.64,1.64,0,0,1-.79.45c-.66.25-.88.66-.58,1.3A.93.93,0,0,1,49,40.57c-.67.76-.66,1-.16,1.92a1.92,1.92,0,0,1,.29,1.44,2.44,2.44,0,0,0,0,.66c.1,1.19.1,1.19-1.16,1.27a2.22,2.22,0,0,1,.57,1.39c.12.63,0,1.37.65,1.89.35.28,0,.71-.23,1s-.64.32-.38.71a.83.83,0,0,0,1,.25,3,3,0,0,1,1.14-.22c.26,0,.6,0,.49.44a16.64,16.64,0,0,1-3.73,1.09,14.29,14.29,0,0,1-1.94.43c-.37.06-.73.1-1-.26a1.58,1.58,0,0,1-1.38-.69.38.38,0,0,1-.12-.21c-.08-.72.44-1.4.12-2.13v-.34a1.28,1.28,0,0,0-.3-1.53c-.27-.31-.43-.7-.26-1,.54-.9.35-1.9.55-2.84s.48-1.94.76-2.89a1.18,1.18,0,0,0-.15-1.24c-.32-.38-.19-.64.22-.86A3.27,3.27,0,0,1,45,38.48a8.42,8.42,0,0,0,3-1.3C49.25,36.73,50.29,35.85,51.51,35.33Z"/><path class="cls-6" d="M15.33,4a4.57,4.57,0,0,0,.85,1.88c.36.44.2,1.14.08,1.7a29.75,29.75,0,0,0-.43,3.87,2.81,2.81,0,0,1-.19.81,7.37,7.37,0,0,0-.4,2.4,8.09,8.09,0,0,1-.86,2.81c-.14.33-.13.43.15.55s.8.23.8.34A2.82,2.82,0,0,1,15,19.71,4.63,4.63,0,0,0,14.49,22c-.13,2-.48,3.9-.55,5.87,0,.56-.58,1.05-1,1.33A11.34,11.34,0,0,1,8.78,30.8a.83.83,0,0,1-.72-.12c-1.3-1.21-2.86-1.23-4.47-1a21.68,21.68,0,0,1,7-2.38c.4-.06.61-.17.68-.56.55-3.1,1.3-6.17,1.64-9.29C13.35,13.29,14.33,9.23,15,5.1A7.46,7.46,0,0,1,15.33,4Z"/><path class="cls-7" d="M34.24.46H32.91c0,.11,0,.19,0,.21,1.12.63,1.07.66,0,1.46a9.33,9.33,0,0,1-7.27,1.35,10.84,10.84,0,0,1-3.44-1.62c-.44-.25-.45-.59.08-.85.26-.13.59-.13.85-.47L22.2.47A4.79,4.79,0,0,1,24,.19,48.14,48.14,0,0,1,34,.34C34.1.35,34.17.42,34.24.46Z"/><path class="cls-8" d="M56.53,49.11c-.29.09-1-.54-.8.45,0,.26-.43.37-.69.52-.44.23-.64.89-1.3.74-.19-.31,0-.54.13-.8s.34-.21.25-.54a4.77,4.77,0,0,1,.06-2.87,2.4,2.4,0,0,0,0-1.16,6.14,6.14,0,0,1,0-2.73,8.48,8.48,0,0,0,.28-2.4,26.25,26.25,0,0,1,.2-3.76,3.08,3.08,0,0,1,.5-1.66,2.82,2.82,0,0,0,.46-2.76,4.21,4.21,0,0,0-.09-.49c-.2-.14-.16-.34-.13-.54a2.68,2.68,0,0,1,1,2.2,42.94,42.94,0,0,1-.12,9.48c-.26,1.82-.12,3.66-.21,5.5C56,48.7,56.44,48.78,56.53,49.11Z"/><path class="cls-9" d="M1.91,50.43a1.52,1.52,0,0,1-.86-1,.86.86,0,0,1,0-.23C.54,45.2.45,41.21.12,37.24,0,35.65-.2,34,.61,32.48c.05.11.09.23.13.34a6.07,6.07,0,0,0,.76,3.84,3,3,0,0,1,.31.86,15.53,15.53,0,0,1,.19,4,2.41,2.41,0,0,0,.35,1.84,1.33,1.33,0,0,1,.09,1.36,1.42,1.42,0,0,0,0,1.21,2.58,2.58,0,0,1,.12,1.48,2.36,2.36,0,0,0,0,1.32,1.74,1.74,0,0,1-.27,1.72A.3.3,0,0,1,1.91,50.43Z"/><path class="cls-10" d="M45.32,26.86c.25.64.17,1.47,1.23,1.57.34,0,.57.69,1.13.69.12,0,.28.29.18.5s-.32.21-.51.16A2.56,2.56,0,0,1,46.06,29a5.8,5.8,0,0,1-1.46-3,20.82,20.82,0,0,0-.91-3.7,9.41,9.41,0,0,1-.11-1.39c-.15-.87-.42-1.71-.6-2.58-.3-1.49-.24-3-.65-4.53-.51-1.93-.83-3.9-1.25-5.85-.24-1.08-.51-2.15-.75-3.23A.7.7,0,0,1,40.41,4c1,3.89,1.93,7.83,2.67,11.78.64,3.44,1.37,6.86,1.92,10.32A1.3,1.3,0,0,0,45.32,26.86Z"/><path class="cls-11" d="M13.14,53.24c-.13-.09-.38-.23-.37-.27.08-.23.29-.24.48-.15a3.81,3.81,0,0,0,2,.27c.7-.06,1.17-.37,1.1-1.17a2.52,2.52,0,0,1,.48-1.46,2.87,2.87,0,0,0,.58-2.31,1.69,1.69,0,0,1,.3-1.27c.35-.69.77-1.33,1.1-2.05.24-.54.94-.88,1.45-1.3.2-.16.36,0,.49.15,1.16,1.49,2.62,2.74,3.45,4.48a1,1,0,0,0,1.35.12c.21-.28-.06-.36-.23-.36-.63,0-.74-.4-1-.89a12.68,12.68,0,0,0-3.59-4.53c-.36-.26-.57,0-.79.21A10.93,10.93,0,0,0,17.43,46a11.6,11.6,0,0,1-.64,1.27c-.11.19-.12.59-.46.46s0-.39,0-.59a4.71,4.71,0,0,1,1.36-3c.16-.14.47-.48.14-.7a.6.6,0,0,0-.87.21c-.1.17-.13.53-.41.43s-.14-.41-.09-.65a14,14,0,0,0-.15-3.16c0-.43-.45-.52-.82-.57A23,23,0,0,1,9,37.53,18.27,18.27,0,0,1,4.3,35c-.45-.41-.8-.91-1.25-1.33a.58.58,0,0,1,0-.77.5.5,0,0,1,.69-.06C5.19,33.8,7,34,8.58,34.51c.92.3,1.93.38,2.9.64.52.14.72-.08.42-.63a5.81,5.81,0,0,0-2-2.12c1.51.13,2.76-1.11,4.45-.53.87.3,2-.34,3-.84a11.88,11.88,0,0,1,1.84-1,1.38,1.38,0,0,0,1-1.46c-.08-1,.22-2-.43-2.92-.14-.19-.08-.54-.07-.82a2.24,2.24,0,0,0-.32-1.35.66.66,0,0,1,.6-1.08A2.68,2.68,0,0,0,21.5,22,3.65,3.65,0,0,1,24,21.8a26.55,26.55,0,0,0,3.33.12c1.62,0,3.24,0,4.86,0a2.9,2.9,0,0,1,2.89,2,.92.92,0,0,1,0,.65,9.16,9.16,0,0,0-.44,3,2.55,2.55,0,0,0,.69,1.73c1.06,1.59,2.8,1.88,4.47,2.19a17.14,17.14,0,0,1,3.83.71,1.35,1.35,0,0,0,1.28-.06.55.55,0,0,1,.67,0c-.29.31-.59.59-.84.91a1.09,1.09,0,0,0,0,1.4c.32.43.72.17,1.13.09a55.59,55.59,0,0,0,5.68-1.59.64.64,0,0,1,.74.22c.12.19-.08.43-.23.58A8.09,8.09,0,0,1,48,36.19c-.78.14-1.38.73-2.17,1A25.58,25.58,0,0,0,41,39.08a3.7,3.7,0,0,1-2.22.61c-.63-.07-1,.1-1,.85a2.76,2.76,0,0,1-.88,2c-.53.44-.53,1.44-1.49,1.4,0,0-.1.14-.11.21a14.45,14.45,0,0,1-1.13,3.13.93.93,0,0,1-.26.51c-.27.21-1,0-.84.26.31.74,0,1.62.52,2.33a9.76,9.76,0,0,0,1.57-2.8c.41-1,1.32-1.22,2-1.78.28-.23.52,0,.43.33a3.18,3.18,0,0,0,0,2.33c.08.19-.06.49-.16.72-.34.75.12,1,.71,1a10,10,0,0,0,1.34,0,.88.88,0,0,1,1,.65c.34,1.14.72,1.44,1.94,1.52.39,0,.81,0,.94.49a1.19,1.19,0,0,1-1,.42c-3.49.4-7,.72-10.48.91-2.93.15-5.85.11-8.78.1a32.65,32.65,0,0,1-4.41-.28c-1.46-.22-3-.13-4.41-.37C13.85,53.62,13.42,53.63,13.14,53.24Z"/><path class="cls-12" d="M2.25,50.41c0-.08-.12-.18-.1-.22.71-1.13-.31-2.37.23-3.52.08-.15,0-.45-.17-.63a1.33,1.33,0,0,1,0-1.49.85.85,0,0,0-.06-1.08c-.68-.69-.4-1.51-.41-2.29,0-1.69.08-3.32-.78-5C.53,35.31-.12,34,.74,32.82,1,35,2.73,36,4.38,37.07a7.14,7.14,0,0,1,1.68,1.2c.06.07.1.18.16.19,1.62.23.74,1.37.75,2.15,0,.42-.08.85.2,1.19a6.22,6.22,0,0,1,1.28,3.68,1.94,1.94,0,0,0,.73,1.44c.21.16.22.33.06.5s-.29,0-.41-.1c-.42-.49-1.2-.61-1.37-1.37a.27.27,0,0,0-.4-.16,1.53,1.53,0,0,0-.24,1.74c1,.95,1,.95.14,2-.25.28-.34.66,0,.87.82.53.57.94-.06,1.38-.07.05-.07.2-.11.3-.27.27-.58.1-.86,0a9.94,9.94,0,0,1-2.64-1C2.94,50.86,2.5,50.77,2.25,50.41Z"/><path class="cls-13" d="M32.57,19.74c.47.13.91-.22,1.38-.12a.38.38,0,0,1-.27.4c-1.33.61-2.6,1.37-4.16,1.25s-2.91.23-4.31-.21A3.1,3.1,0,0,1,23,19.76h.33a33.73,33.73,0,0,0,5.32.35A25.35,25.35,0,0,0,32.57,19.74Z"/><path class="cls-3" d="M48,37.18a5.42,5.42,0,0,1-2.69,1.35,2,2,0,0,0-.79.24c-.48.23-1.3.37-.38,1.12a.65.65,0,0,1,.14.78,14.86,14.86,0,0,0-1,4,1.74,1.74,0,0,0-.06.9.59.59,0,0,1-.18.73c-.54.49-.45,1,0,1.43s.67,1,.12,1.52a1.75,1.75,0,0,0-.06-.57,3.72,3.72,0,0,1-.46-2.94.66.66,0,0,0-.12-.55c-.7-1.09-.7-1.46.26-2.32a2.82,2.82,0,0,0,.87-2.07c0-.47.08-.94-.57-1.12-.37-.1-.18-.33,0-.45a5.86,5.86,0,0,1,1.12-.56A29.34,29.34,0,0,0,48,37.18Z"/><path class="cls-5" d="M37.44,43.38c-.88.74-1.29,1.9-2.43,2.75a8.53,8.53,0,0,1,1.79-2.87c.4-.49.7-1.1,1.47-1.06C38.52,43,37.9,43.11,37.44,43.38Z"/><path class="cls-3" d="M37.44,43.38c.33-.36.9-.54.83-1.18C38.51,42.92,38.31,43.19,37.44,43.38Z"/><path class="cls-7" d="M20.43,3.44c1.43.36,2.91.3,4.36.52a15.93,15.93,0,0,0,1.83-.14c2.87.09,5.72-.17,8.58-.35.26,0,.56-.13.64.18s-.27.27-.44.39a3.81,3.81,0,0,1-2,.36c-1.7.13-3.39,0-5.08.19a32.88,32.88,0,0,1-7.55-.14,1.32,1.32,0,0,1-.55-.18c-.26-.16-.78-.16-.66-.59S20.14,3.6,20.43,3.44Z"/><path class="cls-14" d="M53.84,50.23a15,15,0,0,1-2.7,1c-.49-.36-1-.07-1.43.08a1.38,1.38,0,0,1-1.22-.12c-.65-.35-.51-.62,0-.92a1.3,1.3,0,0,0,.55-.61c.08-.16.14-.35,0-.45-1-.63-.68-1.61-.72-2.51,0-.43-.63-.45-.69-.89a.75.75,0,0,1,.76-.23c.8.23.68-.22.54-.7a1.33,1.33,0,0,1,0-.9,1.52,1.52,0,0,0-.25-1.42c-.56-.93-.54-1.49.27-2.21.33-.3.32-.43.08-.8a1.06,1.06,0,0,1,.76-1.69c.2,0,.42,0,.53-.21a4.18,4.18,0,0,1,1.86-1.47,6,6,0,0,0,3.39-4.52,2.48,2.48,0,0,1-.1,3.2,3.09,3.09,0,0,0-.54,1.72,26.89,26.89,0,0,0-.2,3.91,10.16,10.16,0,0,1-.35,2.63,5,5,0,0,0,0,2.34A2.22,2.22,0,0,1,54.3,47a6.2,6.2,0,0,0-.09,2.32c0,.31.32.23.54.36Z"/><path class="cls-15" d="M35.59,34c.31.3.14.85.53,1.08A1.39,1.39,0,0,0,38.06,35c.67-.68,2.59-.44,3.4.34a.85.85,0,0,1-.64.35c-2.5.2-4.94.81-7.45.94s-5.24.1-7.86.15a49.9,49.9,0,0,1-7.33-.52A.9.9,0,0,1,17.5,36c.4-.72.86-.85,1.51-.38.26.18.51.34.73.06.68-.87,1.5-.71,2.37-.41a2,2,0,0,0,.74.06c.25,0,.57-.06.58-.34s-.33-.29-.57-.32l-2.43-.35c-.06,0-.14,0-.16,0-.55-.9-1.05-.42-1.66,0s-1.3-.35-2-.38c-.16,0-.18-.38.09-.52s.45-.18.7-.28c-.32-.62-.85-.38-1.34-.41,1.14-.16,1.94-1.44,3.28-.88a.66.66,0,0,0,.6-.21c.6-.7,1.57-1,2-1.8a.74.74,0,0,1,.74-.3,1.24,1.24,0,0,0,1.32-1.12c.09-.35.22-.69.33-1,.24-.77.05-1.23-.73-1.33s-.81-.47-.79-1a1.76,1.76,0,0,0-.52-1.67c-.24-.18-.17-.4.15-.56a5.76,5.76,0,0,1,2.85-.41,20.2,20.2,0,0,0,3.81,0,1.72,1.72,0,0,1,2,.75,1.64,1.64,0,0,0,.69.58c.63.29.68.64.5,1.32-.23.85-.54,1.18-1.37.82A1,1,0,0,0,29.8,26a1.55,1.55,0,0,1-1,.49c-.23,0-.48.05-.47.34a.45.45,0,0,0,.43.44c.72-.06,1.26.44,1.91.57.49.09.66.42.55.93a1.53,1.53,0,0,0,1.09,1.9c1,.25,2,1,3.1.56.18-.06.32.1.42.23A1.38,1.38,0,0,0,37.1,32c.59-.07.75.36.84.82-.45.6-1.17.56-1.78.72a17.05,17.05,0,0,1-2.4.29C34.33,33.85,35,33.55,35.59,34Z"/><path class="cls-16" d="M17.5,36a95.66,95.66,0,0,0,12.44.52,50,50,0,0,0,7.45-.57c1.35-.23,2.73-.3,4.07-.61,1.59,0,3.12-.46,4.7-.59.71-.06,1.42-.17,2.14-.21a13.81,13.81,0,0,1-2.89,1c-2.61,1-5.37,1-8.1,1.19-.94.07-1.87.31-2.81.31-2.54,0-5.06.46-7.6.41-1.68,0-3.36-.18-5-.31a25.52,25.52,0,0,0-3.91,0,8.76,8.76,0,0,1-3.49-.26c-.11,0-.22-.14-.31-.12-1.38.28-2.58-.38-3.86-.67-.73-.16-1.43-.41-2.16-.57-.2,0-.51-.09-.43-.4s.35-.27.57-.23l2.58.53c1.59.29,3.2.3,4.8.46a.45.45,0,0,1,.67,0Z"/><path class="cls-16" d="M35.59,34H32.86l0-.27a22,22,0,0,0,5.1-.92c1.53.37,3.05-.09,4.59-.1a2.5,2.5,0,0,1-1.82.76c-1.62,0-3.21.53-4.84.37C35.78,33.83,35.69,33.94,35.59,34Z"/><path class="cls-15" d="M16.32,35.83h-.67c-.35-.26-.79-.18-1.17-.32s-.56-.08-.58-.37.31-.35.53-.44a4.25,4.25,0,0,1,2.75,0,.29.29,0,0,1,.25.29.32.32,0,0,1-.32.32A.89.89,0,0,0,16.32,35.83Z"/><path class="cls-15" d="M13.68,33.07a1.33,1.33,0,0,1,.83,0C14.22,33.4,14.22,33.4,13.68,33.07Z"/></g></g></svg>