<svg xmlns="http://www.w3.org/2000/svg" viewBox="0 0 147.77 160.68"><defs><style>.cls-1{fill:#d1d1d1;}.cls-2{fill:#25b899;}.cls-3{fill:#5278af;}.cls-4{fill:#adadad;}.cls-5{fill:#20a07e;}.cls-6{fill:#b9b8ac;}.cls-7{fill:#bfbfbf;}.cls-8{fill:#939393;}.cls-9{fill:#99988f;}</style></defs><title>paint</title><g id="Laag_2" data-name="Laag 2"><g id="Laag_1-2" data-name="Laag 1"><path class="cls-1" d="M141.42,87.42c0,.41,0,.81,0,1.22q0,30.93,0,61.87a19,19,0,0,1-.1,2.82,5.62,5.62,0,0,1-1,3.49,9.18,9.18,0,0,1-5.38,3.71,7.37,7.37,0,0,1-1.81.14H14.82a8.62,8.62,0,0,1-7.7-4.5,5,5,0,0,1-.65-2.85,18.16,18.16,0,0,1-.11-2.76V50.22c0-.38,0-.76,0-1.14.47-.06.52.35.66.63,1,2,2,4.11,3.19,6.1a75.29,75.29,0,0,0,8.64,12,73.69,73.69,0,0,0,13.38,11.8A72.72,72.72,0,0,0,41.38,85a75.08,75.08,0,0,0,21.88,6.84,73.22,73.22,0,0,0,14.34.66A69.87,69.87,0,0,0,96.32,89c2-.66,4-1.4,6-2.19a3.69,3.69,0,0,1,.64-.21c.39-.08.6.08.62.48,0,.23,0,.45,0,.68q0,9.15,0,18.3a32.33,32.33,0,0,0,.24,6.06,4.15,4.15,0,0,0,.08.79,69.76,69.76,0,0,0,0,7.92,6,6,0,0,0,5.08,5.37,6.08,6.08,0,0,0,6.43-3.87,5.66,5.66,0,0,0,.36-2c0-1.5,0-3,0-4.52a14.39,14.39,0,0,0,0-2.86,19.08,19.08,0,0,0,.18-2.82V81.36a7.78,7.78,0,0,1,.12-1.67c.07-.5.48-.74.83-1a75.52,75.52,0,0,0,8.67-7.31,1.22,1.22,0,0,1,1-.49,4.18,4.18,0,0,1,1.35,1.36,9.26,9.26,0,0,1,1.18,2.87c0,1.13-.05,2.25.06,3.38-.18,2.59-.06,5.19,0,7.79a6,6,0,0,0,11.62,2.29c.1-.28.18-.56.29-.83S141.15,87.37,141.42,87.42Z"/><path class="cls-2" d="M6.48,7A8.43,8.43,0,0,1,13.67.1,9.18,9.18,0,0,1,15.15,0Q73.91,0,132.64,0a8.69,8.69,0,0,1,8.68,7,.45.45,0,0,1-.19.53,4.86,4.86,0,0,0-1.54,3.95,57.31,57.31,0,0,1-1.23,12.12,64.29,64.29,0,0,1-4.53,14,67.18,67.18,0,0,1-7.71,12.88,64.82,64.82,0,0,1-7.87,8.6,65.68,65.68,0,0,1-13.09,9.35,10.94,10.94,0,0,1-1,.51c-.25.12-.51.21-.75,0a1,1,0,0,1-.1-.65c0-.61,0-1.22,0-1.82.07-3.78-.13-7.56-.15-11.33a6,6,0,0,0-11.87-1.4,7,7,0,0,0-.16,1.21,6.79,6.79,0,0,1-7.22,6.59c-2.54-.16-5.27-2.49-5.62-4.57-.08-.49-.46-.87-.49-1.39a2.09,2.09,0,0,1-.08-.34,4.94,4.94,0,0,0,.08-2.06c0-1.58-.08-3.16,0-4.73.14-2.62-1.28-4.13-3.45-5.18a9.6,9.6,0,0,0-3.07-.75L48.92,39.61l-22-2.83c-4.17-.53-8.34-1.1-12.51-1.61A5.39,5.39,0,0,1,13,34.83c-.32-.11-.41-.4-.51-.67a64.81,64.81,0,0,1-3.93-16,57.22,57.22,0,0,1-.39-6.92A4.76,4.76,0,0,0,6.72,7.53C6.55,7.37,6.4,7.21,6.48,7Z"/><path class="cls-3" d="M6.48,7a4.77,4.77,0,0,1,2,4.24A63.91,63.91,0,0,0,12.85,34.1a5.44,5.44,0,0,0,.27.54A7.18,7.18,0,0,1,14.6,37.4c.89,1.92,1.83,3.81,2.89,5.64a2.12,2.12,0,0,1,.32.66c1.54,2.35,3.06,4.71,4.81,6.92A67.29,67.29,0,0,0,30.44,59,64.6,64.6,0,0,0,46.29,69.51,65.4,65.4,0,0,0,64.39,75a69.1,69.1,0,0,0,12.85.61,58.93,58.93,0,0,0,10.81-1.47A65.11,65.11,0,0,0,102.59,69a1.1,1.1,0,0,1,.7-.2.57.57,0,0,1,.19.1A61.54,61.54,0,0,0,116,60.6a65,65,0,0,0,22-36.94,59.3,59.3,0,0,0,1.3-12.53,5.35,5.35,0,0,1,.44-2.37A4.82,4.82,0,0,1,141.31,7a4.34,4.34,0,0,1,4.08-.16,4.17,4.17,0,0,1,2.38,3.92c0,2.15-.17,4.3-.28,6.45a27.24,27.24,0,0,1,0,3.13,73,73,0,0,1-2.38,11.26,79.35,79.35,0,0,1-3.33,9.11c-.86,1.7-1.63,3.43-2.54,5.1a77.41,77.41,0,0,1-7.55,11.32c-1.45,1.81-3,3.48-4.58,5.21-.18.2-.4.36-.59.55-1.26,1.3-2.6,2.53-4,3.72a72.37,72.37,0,0,1-5.85,4.62,1.25,1.25,0,0,1-.4.24,52.1,52.1,0,0,1-4.45,2.89,64.61,64.61,0,0,1-8.32,4.27A71.19,71.19,0,0,1,84.68,84q-3.66.53-7.37.7c-1.24.06-2.47.1-3.71.09a79,79,0,0,1-8.13-.49,69.92,69.92,0,0,1-11.31-2.17A72.69,72.69,0,0,1,42.77,77.9,76.34,76.34,0,0,1,31.5,71.42a63.33,63.33,0,0,1-6.71-5.31C23.5,65,22.19,63.82,21,62.57a79.26,79.26,0,0,1-8.17-9.93,76.58,76.58,0,0,1-5.54-9.41,4.78,4.78,0,0,1-.36-.8,5.8,5.8,0,0,0-.85-1.75c-1-2.4-2-4.82-2.79-7.31a73.36,73.36,0,0,1-3-13.27,20.27,20.27,0,0,1,0-2.81c-.1-2-.13-4-.29-6A4.32,4.32,0,0,1,6.48,7Z"/><path class="cls-4" d="M7.17,42.3a84.49,84.49,0,0,0,5.26,9.19,74,74,0,0,0,20.7,20.64A72.88,72.88,0,0,0,53.62,81.6a74.14,74.14,0,0,0,16.81,2.74,74,74,0,0,0,23.36-2.63,70.55,70.55,0,0,0,9-3.17c.21-.09.42-.15.63-.22.42.21.34.61.34,1,0,2.33.07,4.66,0,7a1.86,1.86,0,0,0,0,.33q0,12.25,0,24.52c0,.36.1.79-.34,1a2.27,2.27,0,0,1-.1-1V87.77c0-1,0-1-1-.62a75,75,0,0,1-17.7,4.95A74.19,74.19,0,0,1,70,92.77,71.35,71.35,0,0,1,50.2,89a74.17,74.17,0,0,1-22.9-12.7A74.41,74.41,0,0,1,10.64,57.13c-1.59-2.59-2.92-5.33-4.25-8.05l0-.32A11.78,11.78,0,0,1,6,45.11c0-.71,0-1.42,0-2.14a1,1,0,0,1,.22-.75A.66.66,0,0,1,7.17,42.3Z"/><path class="cls-2" d="M128.76,78.62l0-3.63a22.87,22.87,0,0,1-.22-6.29,1.77,1.77,0,0,1,0-.23A29.15,29.15,0,0,1,131,65.38a76.29,76.29,0,0,0,7.32-10.84c.91-1.63,1.69-3.32,2.54-5,.13-.25.19-.58.6-.49,0,.11,0,.22,0,.34q0,14.74,0,29.49a6.56,6.56,0,0,1-.49,2.28,6.33,6.33,0,0,1-12.17-2.55Z"/><path class="cls-5" d="M141.41,49.06c-.66,1.33-1.29,2.66-2,4a71.54,71.54,0,0,1-9,13.45c-.54.63-1.09,1.24-1.63,1.87-.39-.1-.36-.43-.36-.7a5.86,5.86,0,0,0-1.78-4.26.87.87,0,0,1-.35-.76,94.55,94.55,0,0,0,6.54-7.6,74.6,74.6,0,0,0,8-13.19c.19-.4.41-.79.62-1.19a.55.55,0,0,1,.31.55c0,2.46.25,4.93-.22,7.37a1.46,1.46,0,0,1,0,.2Z"/><path class="cls-4" d="M128.76,78.62a6.77,6.77,0,0,0,1.6,3.57,6,6,0,0,0,6.2,2,6.38,6.38,0,0,0,4.72-4.81c.05-.17.09-.35.14-.52v8.53c-.13.41-.24.82-.38,1.22a6.45,6.45,0,0,1-6.83,4.16,6.66,6.66,0,0,1-5.36-5.36,14.27,14.27,0,0,1-.1-2.35C128.74,82.93,128.75,80.77,128.76,78.62Z"/><path class="cls-2" d="M103.45,112.13c0-.32,0-.63,0-.95V86.61a3.56,3.56,0,0,1,1.8-1.12,67.7,67.7,0,0,0,8-4.4c.61-.39,1.22-.76,1.81-1.17a1.48,1.48,0,0,0,.69-1.36,28.05,28.05,0,0,1,0-2.9c0-.34.07-.8.63-.42a15.65,15.65,0,0,1,.07,3.62,1,1,0,0,1-.27.61c0,.33-.05.67-.05,1v28.87c0,1.24,0,2.48-.09,3.71a6.19,6.19,0,0,1-6.58,5.44,5.78,5.78,0,0,1-6-5.58Z"/><path class="cls-4" d="M103.49,112.92a6.85,6.85,0,0,0,2.9,4.22,6.26,6.26,0,0,0,9.4-3.39c.08-.23.16-.46.25-.69,0,2.63.13,5.27,0,7.89a5.86,5.86,0,0,1-4,5.2,6.28,6.28,0,0,1-8.58-5.88C103.47,117.82,103.49,115.37,103.49,112.92Z"/><path class="cls-4" d="M116.18,79.47l-.06-4.3a.71.71,0,0,1-.21-.41c.79-2.71,2.39-4.68,5.25-5.25a5.64,5.64,0,0,1,5.32,1.38.21.21,0,0,1,0,.2c-.35,0-.53.32-.75.54a73.28,73.28,0,0,1-9.14,7.64C116.43,79.35,116.3,79.4,116.18,79.47Z"/><path class="cls-6" d="M126.43,71.09v-.16c-.16-.27,0-.47.16-.65.49-.54,1.05-1,1.49-1.61a.45.45,0,0,1,.64-.16V75A7.72,7.72,0,0,0,126.43,71.09Z"/><path class="cls-7" d="M103.36,68.93a55.43,55.43,0,0,1-9.25,3.86,64.62,64.62,0,0,1-23.55,3.12,64.22,64.22,0,0,1-25.47-6.62A65.37,65.37,0,0,1,19,46c-.48-.73-.92-1.49-1.37-2.24.06-.49.42-.36.72-.33,2,.2,4,.5,5.95.75,4.42.55,8.83,1.13,13.24,1.7l10.77,1.39,11.23,1.45,10.89,1.41a14.94,14.94,0,0,1,3.7.7,7.9,7.9,0,0,1,3.36,2.4,5.1,5.1,0,0,1,.65,2l0,.24a41.13,41.13,0,0,1,.3,7.19A6.39,6.39,0,0,0,79.83,67a5.65,5.65,0,0,0,5.82,2.13,6,6,0,0,0,4.66-4.64c.21-.79.14-1.61.28-2.41.54-3,4-6.25,8-5.25A6.71,6.71,0,0,1,103,60.42a4.17,4.17,0,0,1,.36,1.91c0,2.13,0,4.27,0,6.41A.41.41,0,0,1,103.36,68.93Z"/><path class="cls-4" d="M78.09,55.27c-1-3-3.42-4.23-6.38-4.61l-12-1.56c-4-.52-7.93-1-11.9-1.53l-13.3-1.73L19.29,43.91a4.49,4.49,0,0,0-1.71-.13,52.92,52.92,0,0,1-4.46-9.14l12,1.57L39.33,38l15.31,2L67.75,41.7l4.41.57a7.66,7.66,0,0,1,4.72,2.39,4.26,4.26,0,0,1,1.22,3.05Q78.09,51.49,78.09,55.27Z"/><path class="cls-4" d="M103.36,68.93c0-2,0-4,0-5.94a5.93,5.93,0,0,0-4-5.54,5.71,5.71,0,0,0-6.22,1.12,6.57,6.57,0,0,0-2.32,5A6.16,6.16,0,0,1,87,69.08a5.8,5.8,0,0,1-6.44-.9,6.32,6.32,0,0,1-2.42-5.11c0-2.52,0-5,0-7.56a6.78,6.78,0,0,0,2.46,4.29,5.8,5.8,0,0,0,6.46.8A6.23,6.23,0,0,0,90.77,55a6.61,6.61,0,0,1,4.28-6.07,6.38,6.38,0,0,1,8.41,6.11c0,4.61,0,9.23,0,13.84A.25.25,0,0,1,103.36,68.93Z"/><path class="cls-5" d="M116.17,74.72l0,.45a20.69,20.69,0,0,0-.06,3.43,1.6,1.6,0,0,1-.78,1.56,76,76,0,0,1-11.22,6.26c-.19.08-.39.13-.58.19l0-8.29c1.11-.54,2.23-1.07,3.33-1.62a73.64,73.64,0,0,0,8.82-5.2c.17-.11.35-.2.52-.3.34.13.34.44.36.73A9.06,9.06,0,0,1,116.17,74.72Z"/><path class="cls-8" d="M116.17,74.72c0-1.18,0-2.35,0-3.52,2-1.51,4-3,5.91-4.66,1.44-1.28,2.85-2.6,4.27-3.9a6.17,6.17,0,0,1,2.45,5c0,.25,0,.49,0,.74l-.06.15-2.29,2.42c-.39,0-.66-.26-1-.43a6.27,6.27,0,0,0-8.9,3.22A4.54,4.54,0,0,1,116.17,74.72Z"/><path class="cls-9" d="M6.38,42.29c0-.54,0-1.09,0-1.64a7.4,7.4,0,0,1,.8,1.65Z"/></g></g></svg>