<svg xmlns="http://www.w3.org/2000/svg" viewBox="0 0 222.4 226.14"><defs><style>.cls-1{fill:#afaa15;}</style></defs><title>sauce1</title><g id="Laag_2" data-name="Laag 2"><g id="Laag_1-2" data-name="Laag 1"><path class="cls-1" d="M217.31,226c-2.58-2.24-5.23-4.41-7.72-6.74-1.66-1.54-3-3.69-1.23-5.64,2.09-2.28,4.64-.75,6.64.6,3.24,2.2,4.47,6.18,7.31,8.78C223.06,228,219.17,225.33,217.31,226Z"/><path class="cls-1" d="M123.46,4c0-2,1.56-2.92,2.85-4h2c2.55,2.39,3.13,5.49,2.7,8.71-.29,2.18-.43,4.88-3.44,5.31s-3.31-2.08-4-4.09A12.39,12.39,0,0,0,123.46,4Z"/><path class="cls-1" d="M123.61,194c-2-6.2-6.3-9.9-12-12.82a75.82,75.82,0,0,1-18.92-13.91c-2.23-2.23-7.77-1-11.44,2.43-1.45,1.37-2.56,3.22-4.2,4.24s-1.35,3.95-4.25,4.06a3.23,3.23,0,0,1,1.06-3.27c4.74-5,5.29-12.43,10.46-17.21,2.24-2.07-.26-4.28-1.19-6.16s-2.61-1.63-4.23-.45c-.58.42-1.42.5-3.35,1.13,7-7.12,1-12.31-.89-17.6-1.65-4.68-5.81-6.82-11.11-5.48a2.32,2.32,0,0,1-2.67-.88.87.87,0,0,1,0-1.24c.88-1.07,1.91-1,3.13-.74,8,1.5,8,1.47,10.37-6.05a37.38,37.38,0,0,1,2.12-5.57c1-2,2-3.63-.67-5.35a2.82,2.82,0,0,1-.09-4.74c4.86-2.58,2.62-4.85.24-7.39a3.26,3.26,0,0,1-.5-1.33c0-.11.14-.27.22-.41a2.33,2.33,0,0,1,.85-.12c2.08.47,3.7,4.23,5.82,2,2.31-2.44,5.64-4.82,4.76-9.24-.74-3.77,1-5.34,4.76-4.37,1.32.35,2.27.69,3.64-.27,4.84-3.43,10.43-5.62,15.24-9.17,2.09-1.55,2.53-2.44.89-4.58-2.24-2.9-2.65-6.32,0-9.1,1.48-1.57,3.82-3.44,6.19-2.3,2.62,1.26,4.85,3.38,4.32,6.9-.42,2-.74,4,.19,6,2.3.88,5-1.06,7.12.93a18.2,18.2,0,0,0,10.69-.2c1.35-.52,2.86.19,4.17-.59,8,1.43,13.78-1.82,17.39-9.6.45-1,.1-3.31,2.22-2.33,1.87.87,1.18,2.64.1,3.73-3.36,3.42-2.52,7.66-2.58,11.75.37,1.61,1.59,2.49,2.88,3.31s3.15.42,4.11,2a2.81,2.81,0,0,0,3.72,0c4.83-1.78,7.64-.28,8.19,4.56.28,2.52.48,5,2.64,6.67,1.08.85,1.12,1.63.57,2.85-2.11,4.71.23,8.47,2.78,12.15,1.87,1.26,4,1.39,6.14,1.4,1.59,0,3.41-.41,4.2,1.67-2.82,1.11-5.1,2.78-5.92,5.91-1.47,1.12-1.37,2.39-.35,3.75a2.31,2.31,0,0,1,.75,2.18,63.2,63.2,0,0,0-.14,12.9c-1.56,5.82-.27,7.91,5.32,7.92,2.29,0,3.94.5,4.63,2.73a2.21,2.21,0,0,1-1.18,2.52c-2.09,1.21-3.54,0-4.56-1.62-2-3.19-4.4-1.78-6.82-.76-1.13.47-2.09,1.06-2,2.49.06,1.28.66,2.43,1.88,2.61,1.85.27,3.12.95,3.41,2.88.12.76-.38,1.12-1.1,1.33-2.6.75-2.29-2.39-3.45-2.75-9,4.55-7.46,12.88-8.11,20.39-3.77-1.87-8.06-.14-7.51,3.49.74,4.79-1.17,3.25-3.4,2a13,13,0,0,0-8.62,0c-5.25,4.73-13.12,3.92-18.35,8.75-2.31,2.12-6.12,2.16-7.73,5.34-1.48,1.07-.1,2.7-.76,3.94-.24,2.28-.9,4.53-.51,6.86-1.55,2.87-2.74,6-5.25,8.21-2.77,2.38-5.59,3-7.45-1.21a10.06,10.06,0,0,1,1.78-6l2.9-5.3C125.47,196.24,124.81,195.09,123.61,194Z"/><path class="cls-1" d="M53.55,200.05c2.63-5,8.36-6.19,12.14-9.82a2.42,2.42,0,0,1,3.47.59c.59.88,1.32,1.91.56,3.21-2.44,4.11-4.44,8.55-7.31,12.33-3.14,4.12-6.59,3.35-8.9-1.41A8.87,8.87,0,0,0,53.55,200.05Z"/><path class="cls-1" d="M167.41,59.15c-1.93,0-4.51-1.32-4.83-4.88-.29-3.18,4.06-7.46,7-7.16s5.31,1.92,5.57,5.27S172.1,59,167.41,59.15Z"/><path class="cls-1" d="M3.54,191.17c-3.35-.1-4.42-2-2.78-4.55a17.61,17.61,0,0,1,9.45-7.32,4.34,4.34,0,0,1,4.56,1.26c1.29,1.4.1,2.91-.64,4.07C11.68,188.5,8,190.46,3.54,191.17Z"/><path class="cls-1" d="M195.12,26c-.42,3.35-2.4,5.55-5.27,7.05-1.72.89-3.38,1.13-4.4-1.06a19.49,19.49,0,0,1,.73-7.36c.62-2.39,2.69-3.67,4.23-5.32,1.29-1.37,2.82-1.77,4,.28C195.25,21.63,194.33,23.89,195.12,26Z"/><path class="cls-1" d="M43.54,131.05c.93-3.31,3.54-3.48,6.28-3.34A3.81,3.81,0,0,1,53.64,131c.61,3,0,5.56-2.89,7.18a11.5,11.5,0,0,1-6.6,0l.05,0C43.08,135.87,43.79,133.41,43.54,131.05Z"/><path class="cls-1" d="M45.74,72.63c-.05,3.25-1.87,4.52-4.76,4.52-3.53,0-5.13-2.51-5.33-5.38-.27-3.86,3.07-4.4,5.89-4.48C45.08,67.19,45.46,70,45.74,72.63Z"/><path class="cls-1" d="M49.65,19.47c-.23,1.61-1.18,2.55-3.33,2-2.79-.7-7.62-6.43-7.65-9.27,0-1.55.68-2.51,2.4-2.45C43.69,9.85,49.81,16.44,49.65,19.47Z"/><path class="cls-1" d="M195,106.82l6.42-2.58c1.94.6,4.14-.94,5.94.76,2,2.09.74,4.29-.67,5.47-2.69,2.25-5.19.09-7.56-1.34C198.06,107.72,195.8,108.53,195,106.82Z"/><path class="cls-1" d="M58.33,87.86c-2.92-.34-3.24-2.41-3-4.71.18-2,2.33-2.12,3.3-2,2.38.22,3.84,1.92,3.86,4.51C62.47,88.94,59.44,86.61,58.33,87.86Z"/><path class="cls-1" d="M184.71,92.41c3.14-1.6,3.57-5.6,7.21-3.67,1.54.82,1.84,2.26.89,3.8C190.58,96.14,188.24,93.08,184.71,92.41Z"/><path class="cls-1" d="M63.69,72.49a2.41,2.41,0,0,1-2.1-3.21c.32-1.58.93-2.89,2.87-2.53a2.52,2.52,0,0,1,2.28,3.13A3,3,0,0,1,63.69,72.49Z"/><path class="cls-1" d="M195,106.82c1.48.58,3.44.31,4.13,2.31l-2.43.07c-2-1.32-4.27-1.2-6.53-1.22-1.52,0-3.4.53-3.81-1.85C189.19,106.37,192,107.36,195,106.82Z"/><path class="cls-1" d="M122.38,48.58c-.07,1.3-.56,2.35-2,2.34-1.69,0-2.21-1.23-2.24-2.71s.51-2.28,2-2.26C121.85,46,122.39,47.05,122.38,48.58Z"/><path class="cls-1" d="M187.08,181.42c.15-1.13.67-2.07,2.15-1.81a2.49,2.49,0,0,1,2.31,2.68c0,1.51-.9,2-2.23,1.88C187.68,184.07,187.05,183.1,187.08,181.42Z"/><path class="cls-1" d="M60.3,159c1.29-.22,2.69-2.18,3.82-.32s.19,3.4-1.86,4.16C60.86,162,57.35,162.13,60.3,159Z"/><path class="cls-1" d="M191,133.94a23.19,23.19,0,0,1,.14-12.9A49.74,49.74,0,0,1,191,133.94Z"/><path class="cls-1" d="M140.27,72c-3.53,1.82-7.24.83-10.89.73-.06,0-.17-.26-.16-.39a1.76,1.76,0,0,1,.21-.44l8.41-.07C138.67,71.62,139.5,71.32,140.27,72Z"/><path class="cls-1" d="M132.12,202c-1.2-2.37-1.48-4.7.22-7,.26-.45.51-.48.76,0C133.27,197.39,133.36,199.77,132.12,202Z"/><path class="cls-1" d="M186.18,24.6c-.15,2.46.94,5-.73,7.36C183.92,29.33,184.46,26.91,186.18,24.6Z"/><path class="cls-1" d="M159.47,177.08c2.76-2.19,5.84-.83,8.8-.76a.59.59,0,0,1,.07.4,1.22,1.22,0,0,1-.25.4Z"/><path class="cls-1" d="M43.54,131.05c1.48,2.25.53,4.73.66,7.11C42.1,136,42.37,133.55,43.54,131.05Z"/><path class="cls-1" d="M121.2,203c.06,2.2-.94,4.08-1.78,6C118.13,206.41,118.68,204.39,121.2,203Z"/><path class="cls-1" d="M207.31,105c-2-.26-4.11.66-5.94-.76C203.49,103.41,205.67,102.07,207.31,105Z"/><path class="cls-1" d="M58.33,87.86c1-1.46,3.43-.23,4.13-2.23l3.33,3.17Z"/><path class="cls-1" d="M60.3,159c-1.54,2.4,1.11,2.66,2,3.84-1.82.77-3.34.52-3.9-1.57C58,159.83,58.23,158.55,60.3,159Z"/><path class="cls-1" d="M122.31,71c-2-1.92-1.12-3.94-.19-6Q122.21,68,122.31,71Z"/><path class="cls-1" d="M44.15,138.11l6.6,0C48.54,140,46.34,140.28,44.15,138.11Z"/><path class="cls-1" d="M70.26,91.15c1.3.47,2.82.68,3.14,2.85a3.86,3.86,0,0,1-4-2.06A1.11,1.11,0,0,1,70.26,91.15Z"/><path class="cls-1" d="M45.55,221.13c0,.84-.29,1.56-1.22,1.72a1.26,1.26,0,0,1-1.51-1.37,1.52,1.52,0,0,1,1.5-1.52C45.06,220,45.43,220.42,45.55,221.13Z"/><path class="cls-1" d="M123.46,4a5.27,5.27,0,0,1,.13,5.9A12.93,12.93,0,0,1,123.46,4Z"/><path class="cls-1" d="M195.12,26c-1.52-2-.57-4.26-.69-6.41C196.28,21.52,195.47,23.77,195.12,26Z"/><path class="cls-1" d="M140.27,72l-2.43-.17c2-1.24,4.25-1,6.45-.72C143.17,72.44,141.63,71.85,140.27,72Z"/><path class="cls-1" d="M172.13,79.9c-.92,1.92-2.49,1-3.86.86-.05,0-.14-.28-.11-.41s.16-.27.25-.4Z"/><path class="cls-1" d="M70.26,91.15l-.83.79c-1-.39-2.78-.88-2.18-1.73C68.26,88.77,69.36,90.34,70.26,91.15Z"/><path class="cls-1" d="M133.1,195h-.76c0-1.44-.44-3.06.08-4.28.71-1.65.66.2,1,.46Z"/><path class="cls-1" d="M123.61,194c2.07.37,1.73,2,1.64,3.35,0,.92-.58.93-1.15.29C123.94,196.45,123.78,195.23,123.61,194Z"/><path class="cls-1" d="M164.3,78c-2.07-.14-3-1.26-2.88-3.31C162.48,75.7,163.93,76.38,164.3,78Z"/><path class="cls-1" d="M190.38,118.86c-1.94-1.44-1.34-2.65.35-3.76C190.62,116.36,190.5,117.61,190.38,118.86Z"/><path class="cls-1" d="M53.55,200.05a3.88,3.88,0,0,1,0,4.9A7.82,7.82,0,0,1,53.55,200.05Z"/></g></g></svg>