<svg xmlns="http://www.w3.org/2000/svg" viewBox="0 0 135.42 206.1"><defs><style>.cls-1{fill:#c59b6f;}</style></defs><title>sauce2_3</title><g id="Laag_2" data-name="Laag 2"><g id="Laag_1-2" data-name="Laag 1"><path class="cls-1" d="M91.5,73.91l-2.39,2.34a5.93,5.93,0,0,0-3.88,3.13c-.55.64-.58,1.6-1.34,2.11a4.88,4.88,0,0,1-3.61-2.62,1.72,1.72,0,0,1,1.3-1.59c1.69-.66,3-2,4.63-2.67A7.3,7.3,0,0,0,89.52,71c.36-.65.42-1.31-.31-1.72a22.68,22.68,0,0,0-3.65-2c-1.4-.48-2.56-.3-3,1.44a2,2,0,0,1-2.06,1.54c-.78-.29-.72-1-.89-1.65-.7-2.64-2-5.09-2.6-7.76-.08-.31-.44-.47-.62-.74-.62-1,.15-1.76.47-2.59a3.29,3.29,0,0,0-.21-2.12,1.6,1.6,0,0,1,.21-1.84,32.51,32.51,0,0,0,2.57-2.15,2,2,0,0,1,3-.2c.83.81.45,1.7.16,2.59a6.49,6.49,0,0,0-.18,4.24c1-.58,1.32-2,2.62-1.93.92,0,1.51-.37,1.35-1.42s-.51-1.61-1.66-1.37a1.89,1.89,0,0,1-1,0c-.89-.51-.78-1.55-1.22-2.31.66-1.64,2.18-1.28,3.22-1a6.65,6.65,0,0,0,6.45-1.51A7,7,0,0,1,95.34,47c3.12,1.21,3.25,2.2.6,4.44-.81.41-.61,1.19-.66,1.88,0,.29,0,.58,0,.87a17.86,17.86,0,0,1,.28,3.65c.08.28.26.52.34.8a6.6,6.6,0,0,1-.27,3.12,1.2,1.2,0,0,0,.28,1.44c.55,2.32.56,4.53-1,6.52-1,1.23-1.93,2.51-2.93,3.74A6.26,6.26,0,0,1,91.5,73.91Z"/><path class="cls-1" d="M40.5,113l-.74-.47c-1.11-1.5-2-3.21-3.57-4.31-.79-2.41-3-2.32-4.93-2.81-.49-.13-.87-.25-1.07-.74.67-2,2.43-2.68,4.67-1.83a5.22,5.22,0,0,1,2,1.27,3.29,3.29,0,0,0,2.62,1.11,5.17,5.17,0,0,1,4.18,1.54,1.46,1.46,0,0,1,.28.5c-.06.71.24,1.55-.44,1.88a12.74,12.74,0,0,0,2.31-.29,1.26,1.26,0,0,1,.54.13c.49.22,1,.39,1.36-.2,1-1.59,2.57-1.54,4.09-1,1,.36,1.55.2,1.7-.89.86-1.35,1.54-2.86,3.51-3a1.54,1.54,0,0,0,1.31-1.54c.09-1.89,1.57-3.16,2-4.88a.85.85,0,0,1,1-.71c.71.68,1.66,1.14,2,2.13.38,1.66.78,3.31-.77,4.69a1.23,1.23,0,0,0-.14,1.58,4,4,0,0,1,2.73-.5c.91,0,1.15.8,1.66,1.28a4,4,0,0,1,.26.89,1.76,1.76,0,0,1-1,1.76,65,65,0,0,1-8.51,4.56,2.78,2.78,0,0,0-2.49.93c-1,1.22-.62,2.18,1,2.66,1.74.06,3.49-.12,5.1.92,1,.67,2.3-.07,3.44.19,2.14.19,4.33.09,6.25,1.29.66.41,1.5.68,1.1,1.74L72,121a20.39,20.39,0,0,1-5.11-.39,10.22,10.22,0,0,0-5.43.06c-1.52.55-1.25-1.15-1.84-1.77a3.6,3.6,0,0,0-3.31-.74,38,38,0,0,1-5.84.31.81.81,0,0,1-.78-.22,2.69,2.69,0,0,0-3.53-1c-.49.18-.91.5-1.4.68-.76.29-1.45.43-1.53-.73,0-.12.06-.23.1-.35C43.56,114.29,43.35,114,40.5,113Z"/><path class="cls-1" d="M85.11,82A30.93,30.93,0,0,1,94,97.73a3.58,3.58,0,0,1,0,2.15l-.28,0c-1.86-.2-2.82.77-2.84,3.39,0,2.8-1.54,4.67-3.43,6.4-2.33.17-2.78-.63-1.75-3.1-.56-.67-.43.26-.66.31a4.49,4.49,0,0,1-6.77-1.17,4.9,4.9,0,0,0-1.11-1.39,3.71,3.71,0,0,1-1.62-4.46,1.35,1.35,0,0,0-.3-1.34,2.39,2.39,0,0,1-.4-1.55c1.14-2.64.74-3.83-1.75-5.51-.75-.5-1.63-1-1.28-2.15a11.44,11.44,0,0,0,.86-2.27,1.59,1.59,0,0,1,1.68-1.45c1.34,0,2.62-.51,4-.36a12.21,12.21,0,0,0,4,.38c1.22-.08,2-.55,1.85-2C84.11,82.87,84.2,82.21,85.11,82Z"/><path class="cls-1" d="M72,120.85c-2.22-1.77-5-1.74-7.58-2.37a2.29,2.29,0,0,1,.43-3.31,2.94,2.94,0,0,0,1-1.23c1.13-3.51,3.39-6.42,5.08-9.64a8.2,8.2,0,0,0,.23-1,18.39,18.39,0,0,0,.37-5,9.93,9.93,0,0,1,.47-4.85,1.11,1.11,0,0,1,.72-.6,2.66,2.66,0,0,1,2.37.44c1.16.7,1.53,1.51.42,2.57-.49.89-1,1.78.17,2.58.49.32.3.77.18,1.24-.36,1.55-.55,3,.87,4.29,1.06,1,.72,2.73.88,4.12.22,1.9-1.28,4.4-2.85,5.55,2.85.26,3.44.14,6-1.37a2.17,2.17,0,0,1,1.46-.49,1.76,1.76,0,0,0,2-1c.7-1.48,1.77-1.3,3-.82,2.62.7,2.7,1,1,3.11a12.1,12.1,0,0,0-.81,1.33,1.43,1.43,0,0,1-.38.47c-2.39,1.17-4.48,2.91-7,3.78-2.39.68-4.76,1.44-7.13,2.2Z"/><path class="cls-1" d="M40.06,39.15l2-1.95c.66-.82,1.54-1.41,2.23-2.22,1.08-1.28,2.47-.12,3.72-.27a2.92,2.92,0,0,0,3.32-.29,2.4,2.4,0,0,1,.59-.13,25.78,25.78,0,0,1,4.48-.23c.32,0,.63,0,1,0,1.2,0,2.43-.42,3.59.25.58.91,2,1.16,2,2.56-.12.58-.59,1.07-1.06,1-1.87-.12-3.57.89-5.44.68a18.3,18.3,0,0,0-8.56,1.26,21.77,21.77,0,0,1-4.47.92c-1.69.27-3,1-3.39,2.85-.12.5-.14,1.12-.59,1.39-1.18.69-1.61,1.92-2.33,3a2.45,2.45,0,0,0-1.31,2.12C34,51.44,33.6,53.63,32.6,55.4s-2.11,3.87-3.17,5.8A14.26,14.26,0,0,0,28.12,67c-.17,1.87.39,3.74.29,5.63a2,2,0,0,0,1.21,1.86,1,1,0,0,1-.09,1.18c-1.35,1.51-.57,3.24-.5,4.9a12.63,12.63,0,0,1-.36,3,44,44,0,0,0-1,5.23c-.05.74-.13,1.72-1.35,1.61-.89-1.1.14-2.28-.14-3.4,1.11-6.61-.11-13.26.4-19.87A29.57,29.57,0,0,1,26.14,61,7,7,0,0,0,28,56.87a18.51,18.51,0,0,1,4.8-10.49,4,4,0,0,0,.9-2.52,7.5,7.5,0,0,1,2.83-2A11,11,0,0,0,40.06,39.15Z"/><path class="cls-1" d="M94.94,50.84c2.46-1.55,2.47-1.63.17-3.24a1.44,1.44,0,0,1-.79-.18A5.73,5.73,0,0,1,92.56,45c-1.26-2.07-3.29-3-5.46-3.82a2.51,2.51,0,0,0-2.76-1.6A11.88,11.88,0,0,1,79.06,38a12.67,12.67,0,0,0-8.29-.76c-1.58,0-2.45-1.56-3.94-1.76a2.9,2.9,0,0,1,3-3.42,38,38,0,0,0,5.33-.37c1.89-.27,3.06,1.25,4.64,1.73,1.21.37,2.19,1.74,3.7.93a18.11,18.11,0,0,1,11,5.93A21.86,21.86,0,0,0,98.68,44l1.62,1.13c.36.51,1.29.67,1,1.59.09.46-1,.09-.57.82.82,1.25,1,2.86,2.27,3.87A2,2,0,0,1,101.54,54a1.18,1.18,0,0,1-.75-.19c-1.93-1.41-1.91-1.39-3.37.59-.63.85-1.26.89-1.75-.19-.42-.92-.46-2-.93-2.86A1,1,0,0,1,94.94,50.84Z"/><path class="cls-1" d="M101.11,53.56a2.59,2.59,0,0,0,1.2-2.34c-.25-1.52-1.54-2.75-1.24-4.42l-.77-1.65c3.44,2.1,7.55,3.34,9.52,7.34,1.19,3.45.91,7.35,3.3,10.43a2.07,2.07,0,0,1,.33,1.31c1.7,1.91,4,2.86,6.27,3.76a1.28,1.28,0,0,1,.4.37c.09.56.38,1.13-.14,1.63-1.7,1-3.33,1.23-4.89-.28a3.5,3.5,0,0,0-1.39-.79c-.87-.27-.8-1.37-1.55-1.75-1.84-3.06-3.67-6.13-5.53-9.18a24.31,24.31,0,0,0-1.48-2.12c-.66-.86-1.48-1.79-2.62-1.41s-.88,1.7-.8,2.63c.58,6.35-5.36,14.55-10.22,16.82,0-.11,0-.22,0-.33a4.92,4.92,0,0,1,1.07-1.41c3.54-3.45,5.32-8,7.32-12.32.64-2,.27-4.14.91-6.13Z"/><path class="cls-1" d="M30.57,104.57c1.3,0,2.54.37,3.87.38s1.71,1.61,2.1,2.81c-.68,1.66-1.7.58-2.21,0a3.31,3.31,0,0,0-4.13-.8c-2.13,2.13-4.11,4.35-4.37,7.56-.59.44-.43,1.22-.76,1.79s-.66,1.24-1.48,1a1.55,1.55,0,0,1-1.13-1.48,11.79,11.79,0,0,1,.17-2c.25-1.6.3-2.94-1-4.35-.95-1-.52-2.77-.26-4.21a14.2,14.2,0,0,0,.92-6.19,2.74,2.74,0,0,1,.12-1.55c1.66-2.66,2.2-5.73,3.37-8.57.37.48.06,1.18.54,1.62.68,1.07-.3,2.08-.15,3.14.09.85-.58,1.26-1,1.81-1.16,1.28-1.62,4.24-.59,5.43.77.89,2.18,1,3.1,1.85S29.75,103.76,30.57,104.57Z"/><path class="cls-1" d="M20.83,8.56A6.91,6.91,0,0,0,23,4c0-1.4,1.09-2.22,2.3-2.8,2.19-1,4.25-1.32,5.84,1.06.61.93,1.48,1.78.19,2.86-.69.59-.39,1.38-.15,2.07a2.1,2.1,0,0,1-.19,2.34,4.58,4.58,0,0,0-.8,3.39c.23,2.38,1.85,3.82,3.72,4.82,2.39,1.27,1.77,3,1,4.73-.68,1.55-1.57,3.1-3.78,2-.62-.31-1.26.19-1.9.14a1.53,1.53,0,0,1-.83-.25,19.55,19.55,0,0,0-4.57-5.63l-.72-4.46C21.6,12.61,19.31,11.34,20.83,8.56Z"/><path class="cls-1" d="M83.53,34.49c-.55.88-1.25,1.19-2.15.52-3.53-2.65-7.61-2.15-11.6-2a2.82,2.82,0,0,0-2.55,2.2A1.16,1.16,0,0,1,67,36.45a7.57,7.57,0,0,1-2.64,1.14c-.75.2-1.57.25-1.92-.74a3.94,3.94,0,0,1-1.63-2.07.77.77,0,0,1,.13-.81c.3-.26.66-.44,1-.71,1.22-1.15,1.19-1.82-.18-2.83-.64-.47-1.43-.83-1.19-1.82s1.16-.89,1.92-.95a24.79,24.79,0,0,0,2.82-.48,4.61,4.61,0,0,1,.53.15,4.34,4.34,0,0,0,2.16.4,2.14,2.14,0,0,1,.56.17,8.29,8.29,0,0,0,3.12,1c2.74.42,5.46,1.12,7.58,3.15a15,15,0,0,0,4,2C83.25,34.2,83.54,34.23,83.53,34.49Z"/><path class="cls-1" d="M48.09,35.66c-2.31-.65-4.24.25-6.06,1.54a15.62,15.62,0,0,0,1.65-3.54,6,6,0,0,1,4-4c.82-.25,1-.8,1.14-1.43a13.27,13.27,0,0,0,2.42-3.77c.3-.76.65-1.42,1.57-1.51,1.13.63,1.47,1.55.68,2.61-1.14,1.53,0,1.7,1,1.7a14.25,14.25,0,0,0,3.32-.43c4.48-1.14,8.73,0,13,1.21-.91,1.67-1.89.5-2.84.06h0c-.79-.14-1.66.23-2.37-.39l0,0c-3.46-.79-8,.93-8.28,4.32-1.69,1.26-3.75.56-5.61,1C50.06,33.45,48.65,33.87,48.09,35.66Z"/><path class="cls-1" d="M23,140.51c.1,2.55-1.4,4.64-2.19,6.9a25.62,25.62,0,0,0-1.78,8.25A9.84,9.84,0,0,1,13.38,165a1.61,1.61,0,0,1-.45-1.78c1-1.59,1.75-3.36,2.87-4.89,1.61-1,1.58-2.87,2.08-4.42.43-1.33-.58-1.78-1.63-2a6.12,6.12,0,0,1-2.77-1.12l.35-1.61c1-3.18,4-5.16,4.93-8.42a.87.87,0,0,1,.59-.49,4.61,4.61,0,0,0,2.61-.7.75.75,0,0,1,1.2.12A1.27,1.27,0,0,1,23,140.51Z"/><path class="cls-1" d="M118.52,169.16c-3.47-.5-4.74.14-5.49,2.74a14,14,0,0,0-.24,5.24c.15.71.51,1.49-.41,1.88s-1.45-.32-1.92-1a9.27,9.27,0,0,1-.62-1l-.42-1.55c.56-.31,1.1-.66,1.17-1.37a7.59,7.59,0,0,1,4.81-6.88,4.1,4.1,0,0,0-5,3.61,7.59,7.59,0,0,0,.08,2.38,1.77,1.77,0,0,1-1.12,2.24c-1.72-4.24-.62-8.21,2.71-9.9a4.41,4.41,0,0,1,2.06-.53c2.57-.85,5.27-1.4,7.51-3.08.16-1.43.09-2.88.2-4.32,0-.52.2-.9.71-1s.85.15,1.09.61a25.88,25.88,0,0,1,1.79,3.85h0C125.82,165.07,122.18,169.31,118.52,169.16Z"/><path class="cls-1" d="M49.07,145.93c0,.28-.12.95.16,1.29,1.73,2.17.2,4.16-.25,6.19-.12.52-.33,1.11-1,1s-.78-.65-.82-1.22a14.44,14.44,0,0,1-.09-2,4.25,4.25,0,0,0-3.23-4.79c-.54-.17-1.22-.43-1.08-1.2s.77-.62,1.24-.81a6.73,6.73,0,0,0,1.38-.73c.77-.58,1.36-1.5,2.58-.84S49.36,144.47,49.07,145.93Z"/><path class="cls-1" d="M13.48,150.8c1.91-.31,3.8-.26,4.92,1.57.88,1.44-.4,5.77-1.78,6.76-.89-.5-.57-1.2-.34-1.91s.69-1.31,0-2.09a2.72,2.72,0,0,0-1.38,2.24,9.39,9.39,0,0,1-1.27,4.77,1,1,0,0,0,.24,1.4L13.38,165c-1,.85-1.34,2.15-2,3.24a1.1,1.1,0,0,1-1.57.28c-.52-.35-.45-.9-.36-1.43.13-.84.58-1.6.72-2.44,1.13-3.12,3.11-6,2.92-9.5.35-1.43,0-2.93.38-4.36Z"/><path class="cls-1" d="M23,140.51l-.08-.94c-.5-.21-1-.83-1.49,0s-1.25.67-1.68,1.27c-.91,2.9-3.79,4.57-4.7,7.49-.16.51-.74.71-1.26.87.21-2,.7-3.89,2.45-5.22a4.79,4.79,0,0,0,1.46-3,22.13,22.13,0,0,0,.82-4.28c0-2.36,1.65-2.43,3.25-2.69.71-.11.84.48,1.1.93C24,136.78,23.68,138.64,23,140.51Z"/><path class="cls-1" d="M112.15,67.17c.84,0,1.16.7,1.63,1.19,1.51,2.18,3.45,2.72,5.83,1.53.43-.22.83-.46,1.12.16a16.25,16.25,0,0,0-1.36,8.42,3,3,0,0,1-.05,1.39c-.22.7-.53,1.43-1.39,1.48s-.93-.69-1.08-1.23c-.79-2.84-2.14-5.48-3-8.29a5,5,0,0,0-.77-1.57A10.09,10.09,0,0,1,112.15,67.17Z"/><path class="cls-1" d="M56.46,128.07c1.3,2,1.08,7-.4,8.86a1.41,1.41,0,0,1-1.36.68c-.69-.16-.53-.84-.53-1.33a8.46,8.46,0,0,0-1.56-4.64,16,16,0,0,1-2.12-7.14c.55-1,1.15-.77,2-.24s1.83,1.25,2.74,1.86a3.61,3.61,0,0,1,1.27,1.95c-.62.48-1.51.6-1.87,1.41a1.26,1.26,0,0,0,.13,1.32c.17.23.41.38.68.2a1,1,0,0,0,.33-1.08C55.61,129.15,55.63,128.46,56.46,128.07Z"/><path class="cls-1" d="M38.91,205.37A5.94,5.94,0,0,1,37.4,201c0-2.28,1.71-3.6,2.93-5.17a1,1,0,0,1,1.78.13c.35.62,1,1.29.89,1.93-.43,2.4,0,5-1.64,7.15A1.69,1.69,0,0,1,38.91,205.37Z"/><path class="cls-1" d="M125.48,161.08c-1.5-.8-1.74-2.54-2.81-3.75-.63,1.65-.21,3.43-.88,5-.56-1.56.13-3.22-.38-4.78a25.3,25.3,0,0,0-.84-4.88,9.12,9.12,0,0,1-.3-2.13c0-.81-.31-2.07.73-2.22s.93,1.17,1.19,1.9c1,2.74,1.39,5.66,3,8.17A3.35,3.35,0,0,1,125.48,161.08Z"/><path class="cls-1" d="M40.06,39.15c-.53,1.67-2.06,2.28-3.34,3.15-.86.59-1.75,1.15-2.62,1.71.28.81-.33,1.36-.72,1.83a21.89,21.89,0,0,0-5.57,12.53,4.65,4.65,0,0,1-1.24,2.75,40.19,40.19,0,0,1,0,6c-1.64-3.85-.67-7.64.12-11.48,1-4.67,3.85-8.22,6.53-11.88C34.89,41.46,37.74,40.65,40.06,39.15Z"/><path class="cls-1" d="M38.91,205.37c2.44-.21,3.72-2.06,2.87-4.3a1.79,1.79,0,0,1,.23-2c.86-1.12.11-2.12-.65-2.75-.93-.77-1.24.51-1.79.95-1.2.94-1.52,2.41-2.17,3.69a4,4,0,0,1,1.31-3.7c1.92-1.79,2.27-4.32,3-6.65,1.24-.6,1.24.36,1.34,1.1.25,1.88-.27,3.78.23,5.65.42,2.86.22,5.58-1.81,7.88C40.68,206.2,39.82,206.51,38.91,205.37Z"/><path class="cls-1" d="M113.09,70.25c.77.29,1,1,1.23,1.67q1.26,3.73,2.63,7.43c.19.52.31,1.34,1,1.28s1-.84,1-1.49c-.18-2.15.57-4.33-.13-6.46-.54-1.65,1.54-1.62,1.7-2.79a2.36,2.36,0,0,1-.28-.42c0-.47-.4-.75-.54-1.15a1.82,1.82,0,0,1,0-.33c.53,0,1.06,0,1.59,0,1,.06,1,.45.54,1.28-1.5,2.8-2.62,5.73-2.2,9a4.31,4.31,0,0,1,.06.8c-.08,1.07-.15,2.33-1.42,2.56s-1.89-.95-2.08-2C115.6,76.37,113.41,73.62,113.09,70.25Z"/><path class="cls-1" d="M85.11,82a2.72,2.72,0,0,0,1,3.32c.58.39.55,1.19-.14,1.08-2.09-.34-4.15,1-6.21,0-.35-.17-.69-.36-1-.54-.74-.91-2.08.31-2.77-.78-.06-1.11.54-1.54,1.57-1.46.58.05,1.17.06,1.75.1,1.53.11,2.86-.14,3.58-1.74.18-.41.68-.6,1-.94l.48-1.93c.75-.49,1.3-1.64,2.47-.75C86.5,79.66,84.28,80.08,85.11,82Z"/><path class="cls-1" d="M118.14,92.22c0-.63,0-1.16.13-1.68a1.2,1.2,0,0,1,1.17-1.13c.77,0,.59.7.77,1.15.79,2,.48,4.35,2,6.14a.78.78,0,0,1-.08,1.08,1.1,1.1,0,0,1-1.45.07,5.23,5.23,0,0,1-2.21-3.59C118.28,93.56,118.22,92.84,118.14,92.22Z"/><path class="cls-1" d="M21.37,105.34c0,1.89-.24,3.84,2,4.89.76.35.56,1.24.23,2a5.49,5.49,0,0,0-.43,3.27c.07.45-.06,1,.52,1.15s.85-.27,1.07-.69.42-1.13,1.06-1.34a34.12,34.12,0,0,1-.73,3.48c-.34,1.1-1.29,1.39-1.88.39-.71-1.19-2.54-2.1-1.16-4.12.63-.92.16-2.29-.39-3.41A7,7,0,0,1,21.37,105.34Z"/><path class="cls-1" d="M83.53,34.49,83.16,34a18.1,18.1,0,0,1,12.5,6.36c1,1.2,2,2.43,3,3.64-2.5-.69-4.11-2.58-5.74-4.38C90.38,36.82,87,35.64,83.53,34.49Z"/><path class="cls-1" d="M59.63,118.93A3.31,3.31,0,0,0,63,120.16c3-.36,6,.47,9,.87-2.05.71-4.05.12-6.05-.25-4.21-.78-5.56.25-5.94,4.51-.06.67.1,1.73-1,1.57s-.82-1.15-.7-2C58.67,122.89,59.71,121,59.63,118.93Z"/><path class="cls-1" d="M37.16,19.88c-1.09,2.2-2.22,4.38-3.26,6.6a2.19,2.19,0,0,1-2.23,1.23c-.47-1.7-3.11-1.74-3-3.9a7.78,7.78,0,0,1,2.47-.38c1.86.32,2.35-.7,2.92-2.17.65-1.67.11-2.5-1.22-3.45-1.6-1.14-3-2.6-3-4.8.27-.34.41-.3.44.13.47,2.3,2.52,3.09,4.1,4.35C35.38,18.24,36.55,18.75,37.16,19.88Z"/><path class="cls-1" d="M94,99.88a23.25,23.25,0,0,1-1.92,9.39,13,13,0,0,1-5.35,6.1.56.56,0,0,1,0-.84h0a23.27,23.27,0,0,0,4.38-8.66,9.94,9.94,0,0,0,.49-4.28c-.23-1.76.4-2.2,2.21-1.84Z"/><path class="cls-1" d="M59.57,152.83c1.73.86,2.66-.62,3.84-1.34.59-.36,1.18-1.25,1.86-.65s0,1.45-.4,2.1c-.26.38-.57.73-.81,1.13-.65,1.09-1.53,2.05-2.84,1.68a2.76,2.76,0,0,1-1.91-2.94C59.41,152.57,59.49,152.58,59.57,152.83Z"/><path class="cls-1" d="M81.94,133.87c0,.45.08,1.39-.93,1.58s-1.45-.57-1.68-1.35c-.37-1.25-.65-2.54-.9-3.82-.11-.52,0-1.1.6-1.29a1.12,1.12,0,0,1,1.35.58A7.92,7.92,0,0,1,81.94,133.87Z"/><path class="cls-1" d="M3.47,176.66c1.49-1.5,3.06-2.95,2.56-5.42,0-.26.42-.62.65-.93a2.06,2.06,0,0,0,2.19,0c.59-.25,1.16-.61,1.77-.06l-5.58,8.38C4,178.38,3.72,177.54,3.47,176.66Z"/><path class="cls-1" d="M121.41,157.56c.73,1.55.27,3.19.38,4.78-1.83,2.88-4.62,3.1-7.61,2.71.75-.35,1.65-.54,1.43-1.75-.13-.68.37-.88,1-.87a17.18,17.18,0,0,0,1.76,0c3.1-.2,3.09-.21,3-3.47C121.39,158.47,121.4,158,121.41,157.56Z"/><path class="cls-1" d="M113.45,64.23c-2.7-2-2.64-5-3.24-7.87-.15-.69-.49-1.35-.68-2s-.76-1.38.29-1.84c.27.37.69.7.8,1.11C111.6,57.14,112.52,60.69,113.45,64.23Z"/><path class="cls-1" d="M30.2,107a2.77,2.77,0,0,1,4.19.19,1.79,1.79,0,0,0,2.15.56c3,.23,2.46,2.93,3.22,4.72-1.92-1.46-3.87-2.87-5.75-4.38A4.27,4.27,0,0,0,30.2,107Z"/><path class="cls-1" d="M43.24,117.27a2.06,2.06,0,0,0,1.58.1c1.16.22,2.3-.35,3.51,0A3.51,3.51,0,0,1,50,118l.44.47c.15.53.31,1.06.46,1.59-.39.79-1,.84-1.65.41-.53-1.47-1.83-1.84-3.13-2s-1.94.88-2.41,2a3.56,3.56,0,0,1-.82,1.08.7.7,0,0,1-.91.11c-.26-.19-.18-.47-.09-.72C42.36,119.74,42.8,118.51,43.24,117.27Z"/><path class="cls-1" d="M43.32,197.38c-.71-1.8-.44-3.77-1-5.62-.13-.46-.15-.9-.62-1.13a17.09,17.09,0,0,1,1.32-5.49C44.35,189.19,43.27,193.3,43.32,197.38Z"/><path class="cls-1" d="M118.52,169.16c3.17-2,6.5-3.78,6.93-8.08A6.1,6.1,0,0,1,118.52,169.16Z"/><path class="cls-1" d="M10.64,170.28c-.36.29-.7.59-1.06.87-1.44,1.11-2.09.91-2.9-.84,2.1-1.3,2.25-3.81,3.5-5.64a10.41,10.41,0,0,1-.16,1.69c-.33,1.24.14,1.82,1.37,1.9Z"/><path class="cls-1" d="M109.84,177.05a7.5,7.5,0,0,1,.71.67c.4.45.83,1,1.48.71s.43-1,.37-1.54a9.35,9.35,0,0,1,.63-5,26,26,0,0,0,.63,7.86c.18.73.43,1.76-.54,2.08s-1.19-.65-1.51-1.27C111,179.4,110.09,178.39,109.84,177.05Z"/><path class="cls-1" d="M68,28.09A5.37,5.37,0,0,0,70.86,28,19.9,19.9,0,0,1,78,30.59a2.26,2.26,0,0,1,1.22,1.46,21.2,21.2,0,0,0-8.74-2.52A2.91,2.91,0,0,1,68,28.09Z"/><path class="cls-1" d="M49.29,120.5l1.65-.41c.8,2.45,2.7,4.12,4.25,6-1.71-.13-2.95-1.61-4.7-1.62C50.19,123.14,50.21,121.68,49.29,120.5Z"/><path class="cls-1" d="M59.57,152.83l-.26,0c-.53-.59-1.07-1.17-1.58-1.78a5.19,5.19,0,0,1-.92-1.28,2.47,2.47,0,0,1,1-3.09c.81-.39,1,1.15,1.22,1.87A12.19,12.19,0,0,1,59.57,152.83Z"/><path class="cls-1" d="M3.47,176.66c1.4,0,2.06.54,1.59,2l-.78.8a6.29,6.29,0,0,1-1.35,1.11c-1.19.7-1.73.43-2.23-1.11A11.17,11.17,0,0,1,3.47,176.66Z"/><path class="cls-1" d="M46.88,25.72c.72.9,2,1.38,2.1,2.75.15.74,0,1.38-.81,1.55-2.14.43-3.38,1.95-4.49,3.64.22-2.16,1.66-3.38,3.43-4.25,1.39-.67,1.27-1.32.13-2.08s-2.45-1.59-2.82-3.15c1.38-.39,1.86.67,2.46,1.54Z"/><path class="cls-1" d="M30.34,13.14,29.9,13a8,8,0,0,1,0-3.87C30.39,7,30.42,4.53,33.32,4c1.81,2.33.52,4.18-1.16,5.68A4.41,4.41,0,0,0,30.34,13.14Z"/><path class="cls-1" d="M33.32,4c-.53,2.13-3.05,2.93-3.45,5.15a19.84,19.84,0,0,1,.24-3.87C31,1.7,30,.43,26.35,1.11a6.7,6.7,0,0,1-1.1,0C28.75-.7,28.75-.7,33.32,4Z"/><path class="cls-1" d="M72.78,120.85c.81-1.4,2.44-1,3.62-1.63a24.11,24.11,0,0,1,3.16-1.11c.47.19,1.19,0,1.22.82A30.64,30.64,0,0,1,72.78,120.85Z"/><path class="cls-1" d="M86.83,78.34l-2.47.75c-.51,0-1.43-.26-.6-.64,1.47-.68,2.64-1.75,4-2.44a1.4,1.4,0,0,1,1.3.24C88.57,77.19,87.51,77.55,86.83,78.34Z"/><path class="cls-1" d="M80.78,118.93l-1.22-.82c2.58-.82,4.75-2.44,7.17-3.58l0,.84Z"/><path class="cls-1" d="M20.83,8.56C20,11.08,23.07,12,23.07,14.21,19.2,13.25,18.71,12,20.83,8.56Z"/><path class="cls-1" d="M.7,179.46c1.19,1.57,2.38.56,3.58,0a3,3,0,0,1-2.18,1.83,1.93,1.93,0,0,1-1.9-.14C-.36,180.58.41,180,.7,179.46Z"/><path class="cls-1" d="M28.7,23.81l-3.47-2.18-1.44-3C26.14,19.71,28.09,21.11,28.7,23.81Z"/><path class="cls-1" d="M40.5,113c3.34.44,3.73,1,2.84,4A5,5,0,0,0,40.5,113Z"/><path class="cls-1" d="M13.48,150.81a8.4,8.4,0,0,1-.38,4.36C13.07,153.71,12.72,152.21,13.48,150.81Z"/><path class="cls-1" d="M25.83,90.71l0-1.68c.14-.67-.21-1.44.37-2,.53,1.09.16,2.21.09,3.32C26.25,90.6,26.12,90.73,25.83,90.71Z"/><path class="cls-1" d="M70.76,36.46c3.28-1.47,6.31-.37,9.38.83,1.8.71,3.53,1.66,5.71,1,1.37-.44,2.06.78,1.69,2.62,1.55.69,3.29,1.14,4,3a3.85,3.85,0,0,0,3.2,3.34l.41.4c-2,1-3.33,3-5.61,3.62a4.12,4.12,0,0,1-2.7.12,6.59,6.59,0,0,0-4.07-.16c0,.26-.18.41-.46.37a3.29,3.29,0,0,0-3.15,1.68,1.53,1.53,0,0,1-2,.77,2.41,2.41,0,0,1-2,.47c-3.12-.48-6-1.81-9-2.77a17.25,17.25,0,0,0-9.14-.82c-.54.12-1.08.34-1.52,0C54,49.61,52.48,50,50.9,50.57a5.42,5.42,0,0,0-4.54.09A1.7,1.7,0,0,1,43.92,50a1.85,1.85,0,0,1,.48-2.49A4.85,4.85,0,0,0,46,44.45c.45-2.53,2-3.49,4.51-2.75a2.36,2.36,0,0,0,2.55-.58c1.78-1.79,4.24-2.11,6.42-3,1.46-.59,2.63.44,3.7,1.57.88-2.1,2.29-2.87,4.36-2.35a3.2,3.2,0,0,0,1.37-.09C69.6,37.13,70.35,37.19,70.76,36.46Z"/><path class="cls-1" d="M80.74,70c.69-1.32,2.09-2.4,1.51-4,3.42-.56,5.9,1.72,8.75,3,.73.32.87.62.39,1.48-2.4,4.29-6.31,6.56-10.64,8.33-.3.48,0,.82.22,1.24.92,1.49.47,2.45-1.25,2.85a12,12,0,0,1-5.33,0,9.1,9.1,0,0,0-5.85.14c-1.55.67-2.3-.39-2.68-1.77-.33-1.15-1-2.23-.84-3.5s.54-2.46,2.29-2c.62.62,1.54.8,2.18,1.4A18.15,18.15,0,0,0,71,78.22c1.65,0,3.44.55,4.7-1.11.38-.44.85-.77,1.23-1.2,1.29-.84,1.5-2.79,3.26-3.15.57-.06,1.28.8,1.67-.15.3-.71-.39-1-.87-1.29a.94.94,0,0,1-.56-.93A.75.75,0,0,1,80.74,70Z"/><path class="cls-1" d="M66.44,81c.45.67,1,1.47,1.88.91,2-1.2,4-.6,6-.2a12.29,12.29,0,0,0,4.72.14c1.22-.23,2-.56.88-1.86s-.36-1.49.86-1.34c1.33.38,2.07,1.58,3.13,2.33,0,2.91-1.24,4-4.34,3.77-1.06-.07-2.19-.69-3.19.22-.62,1.06-1.47.35-2.25.33-1.18,0-2.56-1-3.46.61a57,57,0,0,0,1.89,7.84l-.15,10.36c-.33,0-.83.11-.93-.14-.66-1.75-2.35-2.81-3-4.56a10.62,10.62,0,0,0,.36-3.77,1.68,1.68,0,0,0-1.07-1.62,2.48,2.48,0,0,1-.49-.3c-1.2-3.15-4.67-3.71-6.73-5.87a3.64,3.64,0,0,0-1.33-2.22,1.8,1.8,0,0,1-.9-1.78c.93-1.33,2.19-1.31,3.66.09.56.54,1,1.29,1.87,1.33.58,0,1.29.19,1.7-.25s-.17-1.07-.32-1.61a1.74,1.74,0,0,1,0-2.12A1.18,1.18,0,0,1,66.44,81Z"/><path class="cls-1" d="M100.66,60.2a24.35,24.35,0,0,1-4.64,9,40.81,40.81,0,0,1-4.51,4.4,5.4,5.4,0,0,1,1.63-2.68c2.14-2.06,2.2-4.65,2-7.33-.77-.87,0-1.85-.19-2.77-.15-.67.18-1.4-.22-2.06V58a4.39,4.39,0,0,0-.36-3.94l0-.89c.49-.57-.56-1.81.86-2,.69.76.67,1.84,1.29,3,.36-1.6.41-3.43,2.56-2.87,1.09.29,2.51.44,2.09,2.22l-.07.07A24.55,24.55,0,0,0,100.66,60.2Z"/><path class="cls-1" d="M80.74,70c0,.11,0,.22,0,.33-.19.49.25.69.46,1,1,1.36.84,1.69-.85,2.23-1.27.8-1.34,2.62-2.77,3.28-.69.16-1.41.51-2-.16a1.63,1.63,0,0,1,0-2.2c3.22-3.55,1.28-6.91-.24-10.3a3.64,3.64,0,0,0-.47-.75c-.58-1.42-.39-2.59,1.05-3.38a.82.82,0,0,1,.85-.13c2.15,2.38,2.83,5.4,3.58,8.38C80.48,68.8,80.6,69.38,80.74,70Z"/><path class="cls-1" d="M76.75,59.85l-.46.42c-1.51.93-3.32.85-5,1.36-2.13.65-3.36-.34-4.12-2.94a11.69,11.69,0,0,1,1.17-3.28c2-2.15,2.22-2.19,3.5-.58.15.44.17,1.07,1,.7A2.5,2.5,0,0,1,74.94,55c1.15.59,2.54.93,2.61,2.6A6.45,6.45,0,0,1,76.75,59.85Z"/><path class="cls-1" d="M82.27,51.55l.46-.37c.65.33,1.3.65,1.24,1.56.63.49,2,0,2,1.36,0,1,.57,2.13-.86,2.65a4.94,4.94,0,0,0-1.88,3.11c-.09.36.08.89-.46.94s-.77-.46-.93-.88c-.8-2-1.24-4-.32-6.12C81.82,53.07,82,52.3,82.27,51.55Z"/><path class="cls-1" d="M85.09,56.75c-.21-1.39.47-3-1.12-4,2.65-.74,3.72.2,3.54,3.08-.05.75-.17,1.47-.91,1.83C85.69,58.09,85.7,56.88,85.09,56.75Z"/><path class="cls-1" d="M77.55,57.56a3.84,3.84,0,0,1-2.71-2c-.79-.83-.59-1.46.4-1.92a2.52,2.52,0,0,1,1.87.38C77,55.22,79.08,56.16,77.55,57.56Z"/><path class="cls-1" d="M80.34,62c-.41-1.5-.83-3-1.23-4.51,0-.08.13-.2.32-.47C80.65,58.5,80.36,60.28,80.34,62Z"/><path class="cls-1" d="M94.69,58.74c1.07,1.53.12,3.23.41,4.83-.86.7-.89,0-.75-.53A24.85,24.85,0,0,0,94.69,58.74Z"/><path class="cls-1" d="M94.33,54.05c1,.66,1.27,3.26.36,3.94Z"/><path class="cls-1" d="M95.17,51.18c-.29.66-.58,1.32-.86,2a11.77,11.77,0,0,1-.39-1.91c0-.93.51-.67,1-.41Z"/><path class="cls-1" d="M58.82,83.87c.8,1.2,2.21,2,2.43,3.56-.7,1-1.66.85-2.65.61-.39-.09-.81-.22-1.1.16s-.06.91.24,1.26a6.26,6.26,0,0,0,2.78,2.18c1.25.41,1.76,1.22,1.23,2.43-.42,1,.73,2.15-.52,2.92-.3,2-2.31,3.47-2,5.77.06.4-.39,1-.75,1.32-1.34,1.27-3.35,1.65-4.42,3.29a3,3,0,0,1-4.4-1.2c-.55-1.14-1-1.11-1.9-.54s-1.25.92-.54,2c.83,1.23.47,1.77-1.14,2.16h-.4a3.77,3.77,0,0,1-2.39-2.39h0a3.63,3.63,0,0,0-3.57-2.15,7.37,7.37,0,0,1-4.49-1.81c-1.36-1.12-2.68-1.38-4.2-.19-1.84,1.45-3-.3-4.42-1.06a1,1,0,0,1,0-.55c2.53-1,1.73-4,3.31-5.62.59-.61.83-1.51,1.93-1.38s1.41.93,1.63,1.92c.54,2.4,1.34,3.19,3.92,2.91,2.4-.26,3.81,1,4.95,2.57a1.89,1.89,0,0,0,2.69.75c2.25-1.12,4.26-.47,6.18.71a1.76,1.76,0,0,0,2.16,0c1.6-1,3.28-1.84,4.1-3.82.64-1.54.61-2.92-.77-4a2.65,2.65,0,0,1-1.23-2.19c-.11-1.9-1.93-2.08-3.26-2.6A11.22,11.22,0,0,1,50,90.16c-1.9-1.23-2.35-2.16-1.91-4.32,0-.19.2-.4.17-.56-.5-2.56,1.36-3.41,3.11-4.33,2.45-1.27,4-1,5.89,1.12.36.4.84.64,1.19,1.05A7.45,7.45,0,0,0,58.82,83.87Z"/><path class="cls-1" d="M69.6,99.35c0,.19.06.54.13.55,2.53.4,1.86,2.79,2.65,4.25-3,4.59-5.34,9.55-8,14.33-1.58.61-3.06,1-4.62-.26-1.13-.94-2.69-.42-4-.56-1.44-2-1-3.4,1.52-5.14.7-1.47,2.35-1.42,3.52-2.12,1.9-1.12,3.83-2.19,5.64-3.46a20.16,20.16,0,0,0,2-6.19C68.47,100,68.46,99.18,69.6,99.35Z"/><path class="cls-1" d="M61.23,97c-.37-1.11-1.11-2.14-.52-3.4.34-.72-.16-.84-.71-1.06a8.35,8.35,0,0,1-4-3.67,1.7,1.7,0,0,1,0-2,1.5,1.5,0,0,1,2-.2c1,.65,2.2.35,3.22.81,1.47.77,2.67,2,4.33,2.48s1.7,2.12,2,3.48a1.62,1.62,0,0,1-1.05,1.69c-2-.26-2.61,1.12-3.11,2.63-.21.65-.05,1.52-1,1.68Z"/><path class="cls-1" d="M62.42,99.39c-.79-2.81,1.08-4.44,2.77-6.13.5-.5.73-.26,1.27,1.34,1.22,1.15.68,2.55.53,3.88-.28,2.42-.38,4.9-2.14,6.86-.92,0-1.34.66-1.84,1.31a2,2,0,0,1-2.36.39c-.87-.39.06-1,.26-1.44a2.19,2.19,0,0,0,0-1.72c-.18-.45-.23-1.1.28-1.21C63.34,102.19,62.48,100.66,62.42,99.39Z"/><path class="cls-1" d="M27,101.79c.68.26,1.35.52,2,.8,1.08.45,1.76.23,2-1,.2-1.07.81-1.62,1.78-.72a15.55,15.55,0,0,0,7.7,3.87c1.36.28,2.69.91,2.82,2.65a4.47,4.47,0,0,0-3.89-1.43,3.62,3.62,0,0,1-3.29-1.41c-1.24-1.44-4.11-1.31-5.56,0a2.31,2.31,0,0,1-2.88-.56c-.87-.89-1.76-1.81-3.23-1.57-.41.06-.71-.25-.91-.64a5.77,5.77,0,0,1,1-6.4c1.65.57,1.56,2.09,1.71,3.38A7.25,7.25,0,0,0,27,101.79Z"/><path class="cls-1" d="M46.1,109.75a1.67,1.67,0,0,0,.09-2.31,1.85,1.85,0,0,1,.83-2.81,1.91,1.91,0,0,1,2.9.62,4.4,4.4,0,0,0,4.16,2.12c-.15,1.18-.71,1.6-1.91,1.23-1.74-.53-3.33-.67-4.35,1.41C47.32,111,46.61,110.29,46.1,109.75Z"/><path class="cls-1" d="M64.85,105.34a5.16,5.16,0,0,1,.57-3c1.21-2.42,1-5.11,1-7.74l1.16-1.21a1.6,1.6,0,0,1,.31.1,6.06,6.06,0,0,1,.64,5.34c-.6,2.19-.11,4.59-1.35,6.65-.2.33-.26.78-.81.65Z"/><path class="cls-1" d="M66.41,106.13a6.7,6.7,0,0,0,.93-3.72c.07-3,.81-5.92.59-8.92,2.15.49,1.71,2.29,1.84,3.75a12.68,12.68,0,0,1-.17,2.11c-.84,1.92-.7,4.14-1.84,6a3.51,3.51,0,0,1-1.37,1.6C66.4,106.67,66.4,106.4,66.41,106.13Z"/><path class="cls-1" d="M57.23,112.52c-.63,1.68-1.54,3.27-1.52,5.14-1.16-.57-2.92-.63-2.59-2.58A3.5,3.5,0,0,1,57.23,112.52Z"/><path class="cls-1" d="M50,118c-1.8.23-3.61.52-5.22-.66,1.22-.3.15-2.89,1.94-2.23,1,.37,1.89,1.26,3,1.69C50.28,117,50.12,117.58,50,118Z"/><path class="cls-1" d="M43.31,107.36a6.84,6.84,0,0,1,2.39,2.39c-1.11,0-2.24-.16-2.78,1.29a1.06,1.06,0,0,1-1.71.31c-.73-.57-.11-1,.25-1.47C42.11,109.06,43.12,108.51,43.31,107.36Z"/><path class="cls-1" d="M87.1,92.27c.19,2-.8,4.32.93,5.83,1.24,1.09.85,1.57.09,2.53-1,1.26-1.88,2.08-3.29.5-.47-.52-1.26-.28-1.91-.37-3-.42-3.62-1.53-2.29-4.2-.71-.2-1.59.77-2.14-.23s-1.07-2.2-.33-3.37,1.06-2.28.06-3.61c-.71-.95-.1-1.45,1-1.28a29.89,29.89,0,0,0,4.54.22c2,0,3,1,3.35,3.12A.57.57,0,0,1,87.1,92.27Z"/><path class="cls-1" d="M86.77,110.53c-.84-.35-1.28,0-1.71.77a3.18,3.18,0,0,1-3.27,1.87c-1.3,0-2.64,1-3.94,1.6-.76.34-1.41,1-2.35.32-.47-.36-.66.14-.85.48-.48.79-1,.66-1.64.15s-.88-1.19-.15-1.84,1.22-1,1.83-1.52A3.3,3.3,0,0,0,76,109.44c-.09-.94,1.39-2-.24-2.83-.18-.09-.39-.55-.31-.66,1.38-2.09-.87-2.27-1.71-3.27-.4-.57,2.53-.84.22-1.67,0,0-.09-.09-.13-.15,1.94-1.37-.67-3.61,1-5,1.11-.31.74.8,1.14,1.17v1.22c.52.42,0,1.12.38,1.57a3.34,3.34,0,0,0,1.8,4.07c1.25.72,1.45,2.51,3.51,2.76a5.82,5.82,0,0,0,3-.47c.54,0,1.11-.73,1.64,0a2.19,2.19,0,0,1-.11,1.68c-.23.74-.13,1.35.91,1.08.82-.12,1.09.43,1,1A.81.81,0,0,1,86.77,110.53Z"/><path class="cls-1" d="M86.77,110.53c1-.32.93-.9.36-1.58,1.56-2.11,3.14-4.11,2.75-7.08a4.48,4.48,0,0,1,1.53-3.05c1-1,1.63.48,2.4.92-.89.18-1.52.57-1.24,1.62.83,3.24-.69,6-2,8.64a10.24,10.24,0,0,1-3.79,4.52,2.21,2.21,0,0,1,.64-1.58C88.87,111.69,88.32,111,86.77,110.53Z"/><path class="cls-1" d="M70.11,85.74c-.31-.48-1.08-.82-.82-1.44s1-.2,1.57-.26a12.86,12.86,0,0,1,5.49,1c.82.23,1.84-.11,2.42.83-.6,0-1.19.08-1.79.09-2.58,0-4,1.45-4.55,3.87l-.25.15c-1.37-.7-.88-2.34-1.67-3.35C70.34,86.38,70.34,86,70.11,85.74Z"/><path class="cls-1" d="M87.1,92.27c0-.29,0-.57,0-.86,2.62-1,3.6-.32,4.63,3.37a4.93,4.93,0,0,0,1.46,2.66,6.85,6.85,0,0,1-2.33-.4c-1-.4-3-.2-2.18-2.49C88.85,94.1,89.33,91.81,87.1,92.27Z"/><path class="cls-1" d="M76,97l-1.14-1.17c.78-.95.85-1.65-.6-1.92a11.2,11.2,0,0,1-1.48-.5c-.88-1.06-1.33-2.19-.47-3.5l.15-.1c.17.2.33.54.52.57,1.41.18,2.69.23,3,2.2a10,10,0,0,1,.08,4A2.47,2.47,0,0,0,76,97Z"/><path class="cls-1" d="M86.33,106.19c-.55.09-1.1.32-1.64,0a5.06,5.06,0,0,0,.72-1.38c.1-.58-.09-1.35.82-1.16s.6.86.4,1.45C86.5,105.42,86.43,105.81,86.33,106.19Z"/><path class="cls-1" d="M76.36,99.78,76,98.2l1.93.18C77.65,99.26,76.56,99,76.36,99.78Z"/><path class="cls-1" d="M72.28,89.9c.15,1.17.31,2.34.47,3.51-.08.12-.15.25-.23.38-.65.62-.87.18-1-.42-.64-2.18-.56-4.58-2-6.55-.38-.53.37-.72.58-1.08,1.37,0,1.36,1.24,1.7,2.08A14.29,14.29,0,0,1,72.28,89.9Z"/><path class="cls-1" d="M27,101.79a2,2,0,0,1-1.75-2.4,10.23,10.23,0,0,0-.65-4,2,2,0,0,1,.82-1.66c1.48-1.2,1.7-3,2.13-4.68.54-2,.59-4.14,1.34-6.16a7.25,7.25,0,0,0,0-3.73,10.58,10.58,0,0,1,.1-3.76l.38-.77c-1.33-1.42-1.05-3-.63-4.69a1.23,1.23,0,0,1,1.38-.55c1.74.4,2.67-.6,3.58-1.86,1.22-1.67,2.38-3.3,2.39-5.52,0-1.15,1.06-1.76,1.78-2.53.5-.53,1.46-.71,1.68-1.34.78-2.28,2.84-3.32,4.29-4.94,2.09-2.35,4.21-3.7,7.37-3.07A2.56,2.56,0,0,1,52.67,50c.75.07,1.74-.15,2.12.9.32.9-.11,1.45-.83,1.92a1.2,1.2,0,0,0-.42,1,4.07,4.07,0,0,1-1.72,2.74c-.49.36-1,.75-.82,1.45s.81.83,1.41.88a16.21,16.21,0,0,0,4.77.18,2.7,2.7,0,0,1,3.35,1.75,12.07,12.07,0,0,0,2.26,3.47,20.21,20.21,0,0,0,1.1,4,3.2,3.2,0,0,1-2.16,3.39,44.49,44.49,0,0,0-5.48,2.48,1.22,1.22,0,0,1-.75,0c-1.44-1.45-1.42-1.61.32-3.11.12,0,.19-.18.16-.18a1,1,0,0,0-.38.05c-.54.15-1.2.29-1.53-.14-1.5-1.91-3.91-2.38-5.77-3.71-1.69-1.2-2.91-.92-3.4,1.1-.44,1.85-1.24,2.82-3.21,2.62a1.07,1.07,0,0,0-.92.31c-1,1.41-2.72,2.21-3.24,4-.47.5-.3,1.14-.34,1.73-.91,1.16-.72,2.58-.87,3.91a1.5,1.5,0,0,1-.3.48c-1.42.58-1.81-.69-2.44-1.23.45.86,1.47,1.35,2.34,2,1.09,2,1.14,3.6-.72,5.4a19.62,19.62,0,0,0-5.14,9c-.5,1.75-1.23,4-3.1,5.25Z"/><path class="cls-1" d="M50.88,50.39c-1,.26-1.94.46-2.86.79a3.75,3.75,0,0,0-1.86,1.06c-1,1.55-1.84,3.13-3.92,3.47a1.37,1.37,0,0,0-.86,1c.12,2-1.12,2.75-2.74,3.47a3.35,3.35,0,0,0-1.73,2.93c-.35,3.14-2.24,5.38-4.65,7.24a1.72,1.72,0,0,1-2.84-.46c-2-.78-1.37-2.5-1.24-3.91a18.37,18.37,0,0,1,2.88-7.63,40.92,40.92,0,0,0,4.25-8.78c-.9-1.45.45-1.52,1.2-2,2.57-.57,2.88-.9,3.22-3.4a.61.61,0,0,0-.22-.54l-.19-.06a4.23,4.23,0,0,1,3.8-3.82c3.5-.38,6.66-2.1,10.18-2.34a8.22,8.22,0,0,1,2.71,0c2.2.57,4.25-.72,6.42-.63,1.58.43,2.74-1.48,4.36-.77,2-.27,2.56.16,2.49,1.93-.79,0-1.58,0-2.38.07-1.28.08-2.34.38-2.25,2.07a1.53,1.53,0,0,1-1.49,1.77c-1.11.07-1.15-.78-1.3-1.6a1.47,1.47,0,0,0-2.07-1.25c-1.8,1-4,1-5.57,2.45-.14.14-.32.23-.47.36-1.48,1.37-2,1.48-3.72.71a1.92,1.92,0,0,0-2.87,1.64,5.78,5.78,0,0,1-1.86,4c-.41.37-.85.77-.42,1.33s1,.33,1.46.09c1.6-.83,3.12-1,4.54.36.15.09.2.18.15.26S50.93,50.39,50.88,50.39Z"/><path class="cls-1" d="M35.31,49.58c1.33.06.61.81.41,1.31a55,55,0,0,1-5,10,10.63,10.63,0,0,0-1.28,9c0,1.58,0,3.16-.07,4.74-1.49.37-1.92-.46-1.93-1.73,0-5.15-.35-10.22,2.84-14.94a37,37,0,0,0,3.65-6.75A6.9,6.9,0,0,1,35.31,49.58Z"/><path class="cls-1" d="M29,75.41a14,14,0,0,1,0,9.36c-1,2.8-1.08,6-2,9-.19.59,0,1.57-.85,1.56s-.57-1-.72-1.58c.14-1,.29-2,.43-3l.41-.4C27.39,88,27.32,85.42,28.12,83a2.4,2.4,0,0,1,0-2.31C27.73,78.85,27.61,77,29,75.41Z"/><path class="cls-1" d="M48.09,35.66c-1.08-1.19-.12-1.79.74-2.28A13.42,13.42,0,0,1,54,32.07c1-.13,1.95-.29,2.93-.43a3.44,3.44,0,0,1,4.15,0c.91.85,1.11,1.78.11,2.73l-.35.37a10.33,10.33,0,0,0-3.58.4c-1.42-1.66-4.72-1.61-5.53.09C50.62,36.64,49.33,35.87,48.09,35.66Z"/><path class="cls-1" d="M26.57,61.12c-.38-2.23.73-4.2,1.24-6.24,1-4.2,3.73-7.51,6.29-10.87,1.27,1.27-.18,1.88-.73,2.53a19.16,19.16,0,0,0-4.6,10c-.17,1.36-.12,2.71-.95,3.92C27.48,61,27.2,61.33,26.57,61.12Z"/><path class="cls-1" d="M40.55,44c.3.58,0,1.16,0,1.73,0,.86.8,2.36-.13,2.42-1.22.08-2.77.64-3.92-.52-.59-1.33-.29-2.26,1.19-2.67a2.68,2.68,0,0,0,1.62-1.33h0C39.9,43.2,40.23,43.6,40.55,44Z"/><path class="cls-1" d="M51.69,35.27l-1-.06c-.38,0-.89,0-.94-.51s.39-.69.77-.77c1.66-.33,3.27-1.08,5-.89,1.23.13,2.24.55,1.68,2.14l-.76,0a17,17,0,0,0-4.78.13Z"/><path class="cls-1" d="M51.68,35.27a8.54,8.54,0,0,1,4.78-.13Z"/><path class="cls-1" d="M28.08,80.73c0,.77,0,1.54,0,2.31C26.63,82.3,27.3,81.51,28.08,80.73Z"/><path class="cls-1" d="M101.07,46.8c2.14,1,1.8,2.67,1.24,4.42-1.15-.24-1.49-1.19-1.82-2.11a10.89,10.89,0,0,0-1.59-3.28Z"/><path class="cls-1" d="M94.7,47.2c-1.41,1.06-2.42.74-3-.88-.31-.8-.6-1.6-.9-2.4,1.07-.41,1.57.73,2.42.91A5.18,5.18,0,0,1,94.7,47.2Z"/><path class="cls-1" d="M69.28,38a8,8,0,0,0-2.49-1.93l.44-.85c1.63-.88,2.26,1.09,3.53,1.23C70.73,37.42,71,38.68,69.28,38Z"/><path class="cls-1" d="M93.17,44.83c-1.27.93-1.6-.65-2.42-.91-.57-1.1-1.06-2.25-2.66-2.16-.42,0-.54-.49-.55-.9C90.23,41,91.84,42.72,93.17,44.83Z"/><path class="cls-1" d="M120.6,69.42l-.06.47c-2,.41-3.81,1-4.49,3.64-.88-2-1.57-3.58-2.27-5.17a29.56,29.56,0,0,0,3.57,1.57,3.14,3.14,0,0,0,2.46-.45A.55.55,0,0,1,120.6,69.42Z"/><path class="cls-1" d="M100.66,60.2c-.29.1-.62.07-.58-.27.28-2.1-.1-4.31,1-6.3A24.52,24.52,0,0,1,100.66,60.2Z"/><path class="cls-1" d="M120.6,69.42l-.79.06c-.13-.38-.86-.72-.08-1.16C120.18,68.55,121.16,68.38,120.6,69.42Z"/><path class="cls-1" d="M25.31,106.43c0,.75-.27,1.19-.92,1.19s-.9-.48-.76-1.08.1-1.21.75-1.24S25.15,106,25.31,106.43Z"/><path class="cls-1" d="M61.15,34.41c.09-1.54-.66-2.24-2.18-2.31a12.7,12.7,0,0,1-2.08-.46c-.45-2.56-.45-2.57,3-4.06,1.94-.84,3.87-1.24,5.77.09l-4.13,1c.07.71.61.76,1,.93a2.62,2.62,0,0,1,1.83,2.54c0,1.23-1.2,1.42-2,1.87A7.34,7.34,0,0,1,61.15,34.41Z"/><path class="cls-1" d="M65.63,27.69a4.12,4.12,0,0,1,2.37.39C67.11,28.52,66.29,28.61,65.63,27.69Z"/><path class="cls-1" d="M13.87,163.54c-.52.24-1,.91-1.59.41s-.1-1.31.26-1.78a7,7,0,0,0,1.27-4.87c-.1-1.61,1.3-2.51,1.57-3.93.09-.45.77-.56,1.2-.3A2.24,2.24,0,0,1,18,155.23c-.11,1.43-1.14,2.52-1.38,3.9A19.39,19.39,0,0,0,13.87,163.54Z"/><path class="cls-1" d="M19.79,140.83c.36-1.1,1-2.1,1-3.33a1,1,0,0,1,.88-1.1c.54,0,.79.45.9.89.19.74.29,1.52.42,2.28l-.43,1.08c-.45,1.2-1,1.87-2,.43C20.39,140.91,20,140.91,19.79,140.83Z"/><path class="cls-1" d="M109.41,175.48c.46-1.25,0-2.49-.07-3.73a5.39,5.39,0,0,1,7.22-5.54c.62.23,1.38.37,1.3,1.23s-.8.77-1.38.85a4.94,4.94,0,0,0-4.58,4.46c-.14.77-.54,1.49-.73,2.25-.31,1.26-1,.95-1.75.5Z"/><path class="cls-1" d="M56.46,128.07c.14,1,.33,2,.4,2.94,0,.71.15,1.62-.72,1.88a2.07,2.07,0,0,1-2.43-.94,3.35,3.35,0,0,1-.07-3.74c.9-1.34,1.87-.32,2.82-.14Z"/><path class="cls-1" d="M50.88,50.39V50c1.67-1,3.44-.21,5.06-.35,2.4-.2,4.68.31,7,.18a6.49,6.49,0,0,1,3.58.88,5.74,5.74,0,0,0,4.54.82c.35-.11,1-.26,1,.24.27,2,1.81,1.75,3.16,1.85a3,3,0,0,0-.4,1.92c-.83,0-1.2.72-1.69,1.23-.4-.84-1.48-.52-2-1.16-1.07-2-1.61-.29-2.3.33-2,.39-2.3,1.61-1.9,3.47a6,6,0,0,1-.31,3.73c-.26.57-.53,1.1-1.24,1.09s-1-.58-1.13-1.19a8.55,8.55,0,0,1-.2-4.46,9.83,9.83,0,0,1-.24,1.27c-.14.46.36,1.24-.41,1.34s-1-.79-1.11-1.37a4.45,4.45,0,0,1,.08-2.37A2.64,2.64,0,0,0,62.09,55c-1.31-.9-2.47-1.31-3.69.28a2.15,2.15,0,0,1-2.45.84c-.72-1.16-2.33-1-3.09-2.15a3.81,3.81,0,0,1,0-.59C53.64,50.86,53.65,50.86,50.88,50.39Z"/><path class="cls-1" d="M66.72,43.65c1.21-.29,2.86-.91,3.48.24.71,1.31-1.17,1.89-1.9,2.79-.6.73-1.41,1.71-2.49,1s-1.74-1.83-.94-3.23C65.9,45.14,66.13,44,66.72,43.65Z"/><path class="cls-1" d="M76.75,51c-1.17-.41-2.79-.16-2.71-2,0-1.09.44-2,1.82-1.76s2.61.59,2.66,2.13A1.61,1.61,0,0,1,76.75,51Z"/><path class="cls-1" d="M66.72,43.65c.12.88.19,1.85-.91,2.09s-.88-.68-.94-1.31C65.42,44,65.83,43.26,66.72,43.65Z"/><path class="cls-1" d="M55.68,73.91c1.2-.92,2.61-1.54,3.58-2.77.19-.23.58-.55.79-.49,2.12.61,2.5-1.07,3.19-2.36a37,37,0,0,1,2.56-4.1A6.63,6.63,0,0,0,67,60.25c0-.74-.29-2.21,1.41-1.93.22,2.28,1,2.81,3.36,2.4,1.49-.26,2.93-1.25,4.52-.45-.22,1-1,1.78-.72,2.88-.66.51-1.4-.25-2.07.14-2.17.25-5.19,3.67-5.41,5.95-.06.68.17,1.1.68,1.19,1.54.25,2.45,1.54,3.78,2.09,1.06,0,1-1,1.24-1.6,0-1,.94-1.63,1.2-2.54a13.59,13.59,0,0,0,.37-3.24c0-.56-.11-1.28.62-1.6,1.21,2,1.55,4.32,3,6.21.42.58-.2,1.36-.59,2-.64,1-1.3,2-1.86,3s-.29,1.9,1.09,2l-.85,1.17c-1.21.51-2.51-.07-3.72.25-.86.22-1.85.12-2.54.86l-1.74-.83c-.57-.61-.59-1.67-1.59-1.92s-.28,1.77-1.55,1.25c-.24.63-.43,1.33-1.34,1.21a1.31,1.31,0,0,1-1-.77c-.15-1.19-.52-2.41.38-3.46-1.09.31-2.11.74-3.15,1.12-.62-.19-1.28-.07-1.92-.24-1.82-.48-2.36-.13-2.84,1.77a1.69,1.69,0,0,1-1,.7A5.24,5.24,0,0,0,52.44,80a3.57,3.57,0,0,1-3.95,1.78,11.76,11.76,0,0,0-6.46.36,2.83,2.83,0,0,1-3.38-1,1,1,0,0,1,.62-1.57,16.38,16.38,0,0,0,1.58-.88c-.54,0-1,1.23-1.88.26,0-2,1.42-2.8,2.9-3.58a6.51,6.51,0,0,1,2.2-.86c.45,0,1,.06,1.31-.28,1.24-1.46,2.55-1.19,4-.39,1.29.7,2.69.35,4,.13A3.89,3.89,0,0,1,55.68,73.91Z"/><path class="cls-1" d="M70.46,79.05c.18-1.27,1.1-1.52,2.17-1.55a10,10,0,0,1,4.09.44A9.07,9.07,0,0,1,70.46,79.05Z"/><path class="cls-1" d="M80.34,73.49c1.5-.91-.21-2.19.39-3.21.37.27.74.55,1.12.8.91.59,1.62,1.32.89,2.42S81.14,74,80.34,73.49Z"/><path class="cls-1" d="M64.38,78.25l1.2-.7A15,15,0,0,0,66.44,81l-.87.44C63.7,81.09,63.26,79.89,64.38,78.25Z"/><path class="cls-1" d="M86.92,72.23c-.26-.11-.51-.14-.59-.27-.39-.58-1.16-1.21-.82-1.85s.67-.08.85.38a5.13,5.13,0,0,0,.45.87A.73.73,0,0,1,86.92,72.23Z"/><path class="cls-1" d="M67.13,76.3l.46-1.64c.48,1.52.8,2.54,1.13,3.56A4.64,4.64,0,0,1,67.13,76.3Z"/><path class="cls-1" d="M85,68.71a.5.5,0,0,1-.61.29c-.34-.06-.66-.23-.47-.62.07-.14.43-.21.65-.19A.46.46,0,0,1,85,68.71Z"/><path class="cls-1" d="M64.38,78.25a6.21,6.21,0,0,0,1.19,3.23l.45,2c.19,1.11-.46,1.64-1.41,1.73s-2.17.65-2.75-.44C61,83.09,59.44,83,57.92,82.68a27.16,27.16,0,0,0-3.17-3.08c-.76-.62-1.4-1.54-.28-2.5l.81-.3c1-1.12,1.73-2.71,3.7-1.47a1.52,1.52,0,0,0,1.48-.27c.74-1.42,1.72-1.88,3.09-.76a3.41,3.41,0,0,1,.52,3.07Z"/><path class="cls-1" d="M58.07,82.24a2.49,2.49,0,0,1,2.82,1c1.73,2.17,3.37,1.43,5.13.23.51.69,1,1.37,1.52,2.07.25.36.72.72.31,1.21a.92.92,0,0,1-1.11.13c-2-.93-4.56-.42-5.93-2.74a1.45,1.45,0,0,0-2-.26l-.77,0C58.11,83.31,56.91,82.77,58.07,82.24Z"/><path class="cls-1" d="M73.6,62.32a2.5,2.5,0,0,1,2,.83l.41.39c.06,1.74.42,3.51-.4,5.18a1.43,1.43,0,0,1-.91-1.4A5.5,5.5,0,0,0,73.47,64C73.08,63.48,72.88,62.84,73.6,62.32Z"/><path class="cls-1" d="M68.41,58.32c-.91,2.76-1.72,5.56-2.85,8.25a2.25,2.25,0,0,1-2.32,1.72A3.43,3.43,0,0,1,62,64.7a10,10,0,0,1-.73-3.38c.82-1.5.08-3,0-4.49a12.43,12.43,0,0,1,1-2.09c.37-.67.86-1.15,1.71-.77-.28,2.1-1.52,4.1-.64,6.67.65-1.64.22-3.21,1.07-4.53-.28,2.54-.36,5,1.25,7.26,1.18-1.36.78-2.83.35-4.28a3.82,3.82,0,0,1,.18-3.42,2.38,2.38,0,0,1,2-1.1c.77,0,.06,1.09.69,1.37C70.11,57,68.53,57.52,68.41,58.32Z"/><path class="cls-1" d="M71.16,55.61l2-.73a3,3,0,0,1,0,1.89c-.68.14-1.32.9-2,.44S70.92,56.15,71.16,55.61Z"/><path class="cls-1" d="M58.07,82.24c0,.54,0,1.07,0,1.61-1.55-1.41-2.91-3.15-5.48-2.43a6.69,6.69,0,0,0-2.44,1.23c-.42.33-.91.67-.81,1.27s.72.64,1.26.62c.33,0,.72-.06.75.4a.66.66,0,0,1-.61.68c-.79.17-1.82-.09-1.82,1.28a2.58,2.58,0,0,0,1.78,2.39,3.2,3.2,0,0,0,1.3.42c2.77-.06,3.91,1.61,4.43,4,.27,1.24,1.52,1.36,2.36,1.94s1.66.78.43,1.83c-.4.35-.43,1.2-.53,1.84-.5,3.34-3.83,4.06-5.69,6.14a1.1,1.1,0,0,1-1.63-.15c-2-3.1-4.65-2-7.16-1.06-1.57.58-2.51.71-2.68-1.38-.11-1.22-2.13-2.37-3.43-2.18-3.36.48-5.27-.94-5.79-4.38-.12-.78-.89-1-1-.62-.3,1.46-2.33,1.92-1.87,3.85s-1.51,1.62-2.5,2.2a8.44,8.44,0,0,1,1.22-2.68,8.49,8.49,0,0,0,1.68-4.76c0-2.31,1.64-4,2.93-5.68a28.66,28.66,0,0,1,2.46-2.83c1.13-1.19-.14-2.39.07-3.57-.34-.55,0-.9.36-1.22a2.36,2.36,0,0,1,0-.28,2.48,2.48,0,0,1,2.48-1c.38.18.46.59.7.89a4.8,4.8,0,0,0,4,.13c2-.87,4-.4,6,0,1.43.29,2.3-.09,2.69-1.52a2.69,2.69,0,0,1,2.85-2.2,3.18,3.18,0,0,0,1.76,2.42A3,3,0,0,1,58.07,82.24Z"/><path class="cls-1" d="M48.07,105.18a1.36,1.36,0,0,1,1.08,1.42c0,.44-.25.83-.73.64a1.66,1.66,0,0,1-1.19-1.43C47.2,105.31,47.59,105.17,48.07,105.18Z"/><path class="cls-1" d="M55.68,73.91c-2.31,1.43-4.7,2.11-7.24.61-1.67-1-2.59,1-4,.92-1.94-1.79-2.19-1.76-4.62-.64-1,.46-2.2,1.34-3.25-.06.87-1.16,1.75-2.31,2.59-3.49s1.28-2.15,3.11-1.54c1.67.55,1.33-1.33,1.53-2.14C44.25,65.68,45,65,47,65.27a2.3,2.3,0,0,0,1.35-.15c.77-.34,1.16-.15,1,.76s.52,1.54,1.05,1.31c1.77-.76,2.12.65,2.88,1.55a3.21,3.21,0,0,0,2.41,1.57c1-.1.87.57.79,1.2C56.4,72.37,54.87,72.76,55.68,73.91Z"/><path class="cls-1" d="M62.41,61.57c-.14,1-.27,2.09-.4,3.13-1-1-2.19-1.89-2.48-3.51-.22-1.21-1.19-1.6-2.44-1.41a21.74,21.74,0,0,1-5.92,0c-.68-.08-1.54,0-1.77-.94A2.22,2.22,0,0,1,50,56.68c.93-.92,1.9-1.81,2.84-2.71a.87.87,0,0,0,.19,0c1.83-1,2.94-.64,3,1.62-.46,1.68.44,1.94,1.85,2s3-.57,4.23.81C62.29,59.4,61.65,60.54,62.41,61.57Z"/><path class="cls-1" d="M36.57,74.74a6.22,6.22,0,0,0,3.62-1.39,2.89,2.89,0,0,1,2.73-.47c1.62.37,1.83,1.22,1.52,2.56-2.1.69-4.23,1.32-5.16,3.66.26.67-.22.81-.68,1-1.24-.82-.91-2.79-2.46-3.38A3,3,0,0,1,36.57,74.74Z"/><path class="cls-1" d="M36.14,76.68c1.51-.8,2.19-.48,2.6,1.14a3.61,3.61,0,0,1-.32,2.08.41.41,0,0,1-.24.34,2.41,2.41,0,0,1-2.46.49C34.12,79.2,35.75,78,36.14,76.68Z"/><path class="cls-1" d="M35.68,81l-.36,1.22c-1.87-.26-3.66-3.07-3-4.69a.78.78,0,0,1,.93-.55c.73.17,1.23.65,1.09,1.4A2.4,2.4,0,0,0,35.68,81Z"/><path class="cls-1" d="M56.46,71.51c-.27-.4-.53-.8-.79-1.2a.91.91,0,0,1,.16-.11c.93-.41,2.29-1.25,2.73-.16S57.29,71.13,56.46,71.51Z"/><path class="cls-1" d="M40.55,44l-1.22-.38a2.27,2.27,0,0,1,.26-.28c.59-.41,1-1.74,1.67-1.21S40.59,43.25,40.55,44Z"/><path class="cls-1" d="M62,58.33a36.57,36.57,0,0,1-5.92.12c-1.22,0-2.26-.39-2.43-1.54s1.25-.75,1.91-1.15a3.94,3.94,0,0,1,.55-.22c.67-1.29,2.22-1.63,3-2.79a1,1,0,0,1,.91-.18,3.3,3.3,0,0,0,3.11.46c.48-.13.73.46.83.94a5.87,5.87,0,0,0-1.52,2.81C62,57.2,62.55,57.94,62,58.33Z"/><path class="cls-1" d="M74.81,71.55c-.26.74-.48,1.5-.79,2.23-.44,1-1.13,1.23-2,.46a13.63,13.63,0,0,0-3.48-3.89c-.6-.41-.5-1-.38-1.55.5-2.36,2.22-3.57,4.29-4.35,1.06-.4,2.12.6,2.51,2.23A10.42,10.42,0,0,1,74.81,71.55Z"/><path class="cls-1" d="M74.81,71.55a35.64,35.64,0,0,0-.17-4.14c-.28-1.77-1.1-2-2.52-1.06a1.72,1.72,0,0,1-.71.21c-2.41.28-3.24,2.1-1.79,4.11.84,1.17,1.94,2.14,2.39,3.57-1.31-1.35-2.33-3-4.32-3.59a.94.94,0,0,1-.51-1.47c1.23-2,2-4.31,3.53-6.17.86-1,1.72-1.34,2.89-.69a13.35,13.35,0,0,1,2,6.4A7.15,7.15,0,0,1,74.81,71.55Z"/><path class="cls-1" d="M60.46,75.06c-.13.51-.57.89-1,.76-1.63-.53-2.83.54-4.19,1-.05-1.31,2-3.14,3.13-2.6C59.08,74.51,60,74.38,60.46,75.06Z"/><path class="cls-1" d="M38.18,80.24l.24-.34.86-.8a7.81,7.81,0,0,1,4.31-1.7,30,30,0,0,0-4.69,3.27C38.51,80.78,38.25,80.68,38.18,80.24Z"/><path class="cls-1" d="M64.07,77.37c-.17-1-.35-2.05-.52-3.07.11-.83,0-1.74.78-2.43C63.62,73.69,64.83,75.55,64.07,77.37Z"/><path class="cls-1" d="M62,58.33l.47-1.55,0,4.79C61.29,60.62,61.82,59.45,62,58.33Z"/><path class="cls-1" d="M38.82,89.42c.25.1.68.27,1.09.46,1.55.68,2.76,2.28,4.79,1.66.44-.13.82.35,1.12.72s.73.76,1.18.48c1.91-1.2,3.89-.1,5.82-.23,1.15-.08,2.11.49,2,1.91-.08.86.55,1.27.94,1.86.56.87,1.77,1.79.61,2.93s-2,2.62-4,1.6c-.23-.12-.6-.36-.7-.29-2.38,1.8-4.69-1.1-7.28,0-1.43.6-1.87-1.65-2.08-2.93-.14-.84-.18-1.52-1-1.94a.76.76,0,0,1-.38-1c1.08-2.53-.71-3.12-2.49-3.68-.48-.15-.94-.22-.83-.85S38.11,89.38,38.82,89.42Z"/><path class="cls-1" d="M113.56,30.9a3.59,3.59,0,0,1,0-5c1.49-1.78,5.94-1.75,7.32-.06s1.75,3.73.15,5.59S116,33.26,113.56,30.9Z"/><path class="cls-1" d="M132.37,56.64a6.58,6.58,0,0,1-6.37.91c-1.34-.43-2.32-1.15-1.72-2.81a14.09,14.09,0,0,1,4.18-3.42c1.55-.92,3.28-.51,4.92-.56,1.37,0,2.37.53,1.93,2.21C134.67,54.47,133,55.16,132.37,56.64Z"/><path class="cls-1" d="M128.46,51.32c-1.35,1.19-2.13,3.09-4.18,3.42A4.52,4.52,0,0,1,128.46,51.32Z"/><path class="cls-1" d="M132.37,56.64c.24-1.82,1.89-2.5,2.94-3.67C135.26,54.94,133.68,55.68,132.37,56.64Z"/></g></g></svg>