<svg xmlns="http://www.w3.org/2000/svg" viewBox="0 0 701.01 656.67"><defs><style>.cls-1{fill:#fefe02;}.cls-2{fill:#fefe01;}.cls-3{fill:#fefe00;}.cls-4{fill:#fefe06;}.cls-5{fill:#fefe6d;}</style></defs><title>splash-yellow</title><g id="Laag_2" data-name="Laag 2"><g id="Laag_1-2" data-name="Laag 1"><path class="cls-1" d="M436.92,0c9.37,6.45,8.33,15.43,5.15,24.25-9.3,25.82-26,47-43.53,67.89,2.67-28.44,5.93-56.57,20.15-81.92C420.91,6.28,425,3.38,428.21,0Z"/><path class="cls-2" d="M701,360.84c-5.87,6.52-13.5,7.78-21.71,7.07-27-2.32-51.48-12.79-75.94-24.1,20-5.09,40.16-5.9,60.48-5.42,13.57.32,26.61,1.82,37.17,11.56Z"/><path class="cls-3" d="M227.43,459c5.77-12.11,7-24.3.45-36.55-6.26-11.69-13.13-13-21.72-3.06-7.35,8.47-13.63,17.86-20.33,26.89-3.91,5.28-8.21,10.13-13.82,13.69-6.26,4-12.27,3.52-18.22-.77-11.53-8.31-11.71-17.48.58-24.55,11.59-6.67,24.33-11.36,35.9-18.06,15.58-9,16.37-19.41,4.22-32.56-7.09-7.68-14.63-7.79-22.13-1.9-8.25,6.48-15.64,14-23.66,20.82-4.08,3.45-9,8-13.94,1.8-4.23-5.37-3.9-11.57,1-16.87,3.79-4.13,8.92-6.14,13.94-8.23,8.7-3.62,17.7-6.62,26.11-10.81,12.65-6.28,16.73-15,14-27.41-2.71-12.07-10.46-18.18-24.48-18.81-13.18-.6-25.93,2.35-38.6,5.52-19.33,4.85-38.61,9.93-58,14.58-4.51,1.08-9.34,1.11-14,1.14-7.93.06-14.61-2.44-16.07-11.31-1.51-9.14,1.18-16.71,10.47-20.34,11.56-4.52,23.57-3.21,35.48-2q29.74,3,59.46,6.39c7.67.85,15.24-.17,22.74-1.28a28.77,28.77,0,0,0,18-9.36c10-11.41,7.67-20.78-6.7-25.28-19.2-6-39.31-6.24-59.1-8.44-14.05-1.56-28.14-2.82-42.14-4.73A87,87,0,0,1,60,263.05c-3.82-1.34-7.42-3.68-6.62-8.69.74-4.61,4.33-6.55,8.42-7.38a47.39,47.39,0,0,1,19.45.28c26.57,5.7,53.11,11.58,79.73,17.07,5.26,1.09,10.82,1.06,16.23.94,5.58-.12,11.13-1.44,13.41-7.4s.43-11.36-3.65-16.12c-5.28-6.16-12.24-10.16-18.8-14.68-6.27-4.32-12.94-8.14-18-14-4.58-5.37-5-11.11-.79-16.89,4.07-5.56,9.74-6.43,15.48-3.59,6.47,3.21,12.45,7.41,18.72,11,4.39,2.53,8.72,5.33,13.43,7,6.34,2.32,12.17.71,16.64-4.65,4.62-5.53,4.51-11.58.58-17.07-4.42-6.16-9.74-11.67-14.54-17.57-5.29-6.49-11.9-13.07-3.88-21.71,6.21-6.68,14.47-5.1,23.17,4.76,6.71,7.59,12.34,16.14,19,23.76,5.91,6.72,11.89,14.68,22.86,10,9.54-4,14.49-14.1,13.19-26.28-1-9.62-5.13-18.22-10.33-26.09-10-15.12-20.6-29.82-30.91-44.73-6.39-9.24-12.93-18.35-16.34-29.32-2.8-9-.59-15.63,7.8-20.08,9.5-5,18.52-3.71,24.37,4s7.87,17.07,9.76,26.3c3.12,15.26,5.75,30.63,8.79,45.91a97.61,97.61,0,0,0,9.15,26.67c4.39,8.34,10.63,14.74,20.35,16.6,16.15,3.07,22.9-3.4,20-19.58-1.53-8.55-4.26-16.88-5.81-25.43-1.07-5.94-2.61-12.59,3.79-16.86a10.43,10.43,0,0,1,11.41-.23c6.27,3.81,5.93,10.37,5.58,16.55-.52,9-1.71,18-2.09,27.09-.35,8.18,1.64,15.42,11.23,17.23s14.37-4.3,17-11.84c3.2-9.21,4.89-18.94,7.77-28.29,2.3-7.43,5.31-15.19,15.45-13.28,10.55,2,11.4,10.42,9.89,18.65-2,10.67-5.71,21-7.66,31.68-1.64,9-5.3,19.23,5.49,25.42,7.38,4.24,15.34-.11,23.5-12.57,5.76-8.79,10.88-18,16.29-27,3-5,6.34-9.79,11-13.4,4-3.1,8.41-4.2,13.18-1.55,5,2.81,7,7.17,6.17,12.76-1.11,7.38-5.15,13.49-8.81,19.73-5.87,10-12.88,19.36-17.08,30.28-2.77,7.19-3.86,14.76,3.57,19.57,7.1,4.59,12.34-1.15,17-5.57,12.36-11.82,22.24-25.81,33.31-38.77,6.85-8,13.87-15.87,22.78-21.68,12.38-8.06,22.85-6.62,30.55,4,7,9.64,4.95,18.56-7,27.83-13.28,10.32-29,16.4-43.77,24.08-7.08,3.69-14.38,7-20.26,12.57-7.37,7-6.92,12.87,1.23,18.74a20.28,20.28,0,0,0,19.65,2.62c7.5-2.69,14.84-5.82,22.32-8.59,6.56-2.42,12.22-1.58,15.62,5.33s1.89,12.88-4.46,17.05a76.06,76.06,0,0,1-12.65,6.2c-8,3.34-16.29,6.12-24.23,9.66-9.17,4.09-13,11.14-10.13,21.22,3,10.68,10,16.23,20.36,16,10.84-.28,20.34-5,29.83-9.49,12.11-5.76,23.82-12.46,36.22-17.5,18-7.3,24.65-3.15,27.74,15.7a55.63,55.63,0,0,1,.65,9.74c-.17,12.79-5.61,18.64-18.6,18.89-7.94.16-15.91-.82-23.84-1.53-13.36-1.2-26.8-3.42-39.84,1.48-9.37,3.52-16.75,9.88-17.3,20.35-.55,10.28,8.49,13.64,16.11,16.78,18.91,7.79,39.19,10.34,59,14.69,11,2.42,22.09,4.34,32.32,9.29,5.14,2.48,9.67,5.53,7.8,12.43-1.92,7.06-6.74,10-13.85,9.42-8.15-.66-15.4-4.06-22.44-7.84-14.69-7.9-29.22-16.1-43.93-24a69.16,69.16,0,0,0-23.58-8c-12.61-1.64-19.93,2.5-25.31,14-1.07,2.29-1.72,4.82-3,6.95-9.45,15.38-8.93,20.41,4.83,31.76,12.64,10.43,27.3,17.84,41.21,26.36,8.05,4.93,16.17,9.83,22.28,17.21,3.27,4,6.47,8.48,3.06,13.77s-9.11,4-13.85,2.76c-8.59-2.33-15.47-7.83-21.83-13.87-10.52-10-20.77-20.27-31.44-30.1-7.23-6.65-15.1-12.62-25.19-14.33-7.65-1.29-14.43.26-19.34,6.92-5.07,6.88-3.7,13.5.42,20.23,5.41,8.82,13.1,15.41,20.81,22,15.38,13.21,32.93,24,45.64,40.16,9.39,11.93,6.11,22.71-7.88,28.6-7,2.93-12.67,1.14-17.92-3.7-7.08-6.55-11.38-14.93-15.59-23.39-6.46-13-12.87-26-19.58-38.84a44.31,44.31,0,0,0-11.71-14.16c-7.72-6.19-15.42-5.13-23.14-.23-8.11,5.15-7.76,12.8-4.73,20.23,3.42,8.36,8.22,16.15,12,24.4,3.36,7.46,6.51,15.4-3.44,20.67-7.78,4.11-14.29,1-19.61-9.76-4.34-8.76-7.79-18-12.1-26.75-4.16-8.47-10.54-14.24-20.8-11.8C346.18,472.86,343.29,481,343.17,491c-.17,14,3.8,27.24,7.44,40.51,4.7,17.13,10.23,34,13.41,51.55,1.23,6.82,1.77,13.73.49,20.56-2,10.74-9.85,16.86-20.86,16.78-9.72-.07-16.12-5.79-17.67-17.06-1.68-12.27-.56-24.57.93-36.86,2.57-21.23,7.42-42.18,7.92-63.65.14-5.79.3-11.63-1.46-17.27-1.84-5.89-5-10.43-11.79-11.25-7.19-.87-11.86,2.7-14.87,8.66-4,7.86-4.78,16.68-7,25.07a117.09,117.09,0,0,1-5.24,16.52c-2.87,6.62-8.48,8.52-15.35,6.81-7.05-1.76-8.62-7-8.25-13.36.46-8.09,3.85-15.43,5.86-23.13,3-11.39,9.26-23.7-3.23-32.9-10.63-7.83-30-12.54-43.52-.58C227.88,462,226.92,461.3,227.43,459Z"/><path class="cls-2" d="M214.75,483.19c-7.12,15.93-11.9,32.67-17.25,49.22-2.9,9-6,17.87-10.46,26.21-9.89,18.39-24.67,20.5-39.69,5.76-6.28-6.16-7.51-13-3.2-20.66,4.5-8,10.95-14.37,17.84-20.33,17-14.69,34.94-28.32,50.73-44.39C216.33,479,216.48,480.63,214.75,483.19Z"/><path class="cls-2" d="M92.19,441.42c-20.78,17.79-42.38,33.86-68.39,42.76a34.76,34.76,0,0,1-10.7,1.58c-5.43.05-10-2.11-12.16-7.46s-.29-9.94,3.77-13.66a28,28,0,0,1,6-4.58C36.26,447,64,443.77,92.19,441.42Z"/><path class="cls-4" d="M38,247.27c-1,6.47-4.87,11.54-12.39,11.83s-12.17-4.31-13.14-11.73c-.85-6.44,6.16-13.57,12.74-13.57C31.33,233.79,37.84,240.22,38,247.27Z"/><path class="cls-4" d="M538.65,224.21c1.82-6.59,5.92-11.59,13.58-10.63,7.85,1,12.37,6.32,11.12,14.39-1.14,7.36-6.48,11.72-13.86,10.57C542.41,237.43,538.25,232.45,538.65,224.21Z"/><path class="cls-5" d="M214.75,483.19c-.22-1.62-.05-3.42-2-4.19q7.36-10,14.71-20L230,461.4Z"/><path class="cls-2" d="M619.36,453.33c22.81,5.74,44.83,12.91,64,26.74a29.54,29.54,0,0,1,6.43,6.72c2.74,3.78,3.47,8,.81,12.24s-6.82,5.14-11.46,4.15a24.83,24.83,0,0,1-6.21-2C651.07,489.81,635,471.92,619.36,453.33Z"/><path class="cls-2" d="M508.13,96.3c6.72-17.13,14.48-33.49,27.11-47A23.36,23.36,0,0,1,541.1,45c3.2-1.75,6.58-1.9,9.58.59s3.31,5.8,2.07,9.3a18.89,18.89,0,0,1-2.14,4.62C539.59,75.34,524.11,86,508.13,96.3Z"/><path class="cls-4" d="M365.86,22.62c-1,6.48-4.86,11.55-12.39,11.84s-12.16-4.31-13.14-11.74c-.85-6.44,6.17-13.56,12.74-13.57C359.17,9.15,365.68,15.58,365.86,22.62Z"/><path class="cls-2" d="M412.92,580.78c8,12.37,15.08,25.05,18,39.58a18.68,18.68,0,0,1,.09,5.83c-.36,2.91-1.84,5.18-4.85,6s-5.33-.55-7-3a16.07,16.07,0,0,1-2-3.55C411.92,611.06,412.18,596,412.92,580.78Z"/><path class="cls-1" d="M63.12,84.23c6-4.12,11.1-1.46,15.64,2.45,13.28,11.43,22.13,26.21,30.58,41.43C93,120,77,111.68,65.07,97.43c-1.85-2.22-2.65-5.32-3.93-8Z"/><path class="cls-4" d="M267.82,644.23c-.64,6.8-3.19,12.13-8.11,12.42s-8-4.52-8.61-12.31c-.56-6.77,4-14.24,8.34-14.25C263.44,630.08,267.7,636.84,267.82,644.23Z"/></g></g></svg>