<svg xmlns="http://www.w3.org/2000/svg" viewBox="0 0 648.53 607.5"><defs><style>.cls-1{fill:#ff1d1d;}</style></defs><title>splash-red_1</title><g id="Laag_2" data-name="Laag 2"><g id="Laag_1-2" data-name="Laag 1"><path class="cls-1" d="M404.21,0c8.67,6,7.7,14.27,4.76,22.43-8.6,23.89-24,43.5-40.27,62.81,2.48-26.31,5.49-52.33,18.65-75.78,2-3.65,5.83-6.33,8.8-9.46Z"/><path class="cls-1" d="M648.53,333.82c-5.44,6-12.49,7.2-20.09,6.55-25-2.15-47.62-11.84-70.25-22.3,18.51-4.71,37.16-5.46,55.95-5,12.55.3,24.62,1.69,34.39,10.7Z"/><path class="cls-1" d="M210.41,424.67c5.33-11.2,6.49-22.47.41-33.81-5.79-10.81-12.15-12-20.1-2.83-6.79,7.83-12.61,16.52-18.8,24.87-3.62,4.89-7.6,9.38-12.79,12.67-5.79,3.68-11.35,3.26-16.86-.71-10.66-7.69-10.83-16.17.54-22.71,10.73-6.17,22.51-10.51,33.22-16.71,14.4-8.34,15.14-18,3.9-30.13-6.56-7.1-13.53-7.2-20.47-1.75-7.64,6-14.47,13-21.9,19.26-3.77,3.19-8.34,7.42-12.89,1.66-3.92-5-3.61-10.7.91-15.61,3.52-3.81,8.26-5.67,12.9-7.61,8.05-3.35,16.38-6.12,24.16-10,11.7-5.82,15.48-13.92,12.91-25.36-2.5-11.17-9.67-16.82-22.64-17.41-12.2-.55-24,2.18-35.71,5.11-17.89,4.49-35.73,9.18-53.66,13.48-4.18,1-8.65,1-13,1.06-7.33.05-13.52-2.25-14.87-10.46-1.4-8.45,1.09-15.46,9.69-18.82,10.69-4.18,21.8-3,32.82-1.84q27.53,2.81,55,5.91c7.09.78,14.1-.16,21-1.19a26.67,26.67,0,0,0,16.64-8.66c9.26-10.56,7.09-19.23-6.2-23.39-17.77-5.57-36.37-5.77-54.68-7.8-13-1.45-26-2.62-39-4.38a80.19,80.19,0,0,1-15.48-4.17c-3.54-1.23-6.87-3.39-6.12-8,.68-4.27,4-6.06,7.78-6.83a43.8,43.8,0,0,1,18,.26C99.77,234,124.32,239.47,149,244.54a67.12,67.12,0,0,0,15,.87c5.17-.12,10.29-1.33,12.41-6.85s.39-10.51-3.38-14.9c-4.88-5.71-11.33-9.41-17.39-13.59-5.8-4-12-7.53-16.61-13-4.25-5-4.66-10.28-.74-15.63,3.77-5.14,9-5.95,14.33-3.31,6,3,11.51,6.85,17.31,10.19,4.06,2.34,8.07,4.93,12.43,6.52,5.86,2.14,11.25.66,15.39-4.3,4.28-5.12,4.17-10.71.54-15.79-4.09-5.7-9-10.8-13.45-16.26-4.9-6-11-12.09-3.59-20.08,5.74-6.19,13.38-4.72,21.43,4.4,6.21,7,11.42,14.93,17.61,22,5.46,6.22,11,13.58,21.15,9.27,8.82-3.74,13.4-13,12.19-24.31-1-8.9-4.74-16.86-9.55-24.13-9.24-14-19.06-27.6-28.59-41.39-5.92-8.55-12-17-15.12-27.13-2.59-8.33-.54-14.45,7.21-18.57,8.79-4.66,17.13-3.43,22.55,3.74s7.28,15.79,9,24.33c2.88,14.12,5.32,28.33,8.13,42.48a90.23,90.23,0,0,0,8.47,24.67c4.06,7.71,9.83,13.63,18.82,15.35C289.48,152,295.73,146,293,131c-1.42-7.91-4-15.62-5.38-23.53-1-5.49-2.41-11.64,3.51-15.59a9.64,9.64,0,0,1,10.55-.22c5.8,3.53,5.49,9.6,5.16,15.31-.48,8.36-1.58,16.7-1.93,25.06-.32,7.57,1.52,14.27,10.39,15.94s13.29-4,15.71-11c3-8.52,4.53-17.53,7.2-26.17,2.13-6.87,4.91-14.06,14.29-12.29,9.76,1.84,10.55,9.64,9.15,17.26-1.81,9.87-5.28,19.43-7.09,29.3-1.51,8.29-4.9,17.8,5.08,23.52,6.83,3.92,14.19-.1,21.74-11.63,5.33-8.13,10.07-16.64,15.07-25,2.78-4.63,5.87-9,10.15-12.4,3.67-2.86,7.79-3.88,12.19-1.43,4.67,2.6,6.48,6.63,5.71,11.81-1,6.82-4.76,12.48-8.15,18.25-5.42,9.25-11.91,17.91-15.8,28-2.56,6.66-3.57,13.66,3.31,18.11,6.56,4.25,11.41-1.06,15.69-5.16,11.44-10.93,20.58-23.88,30.82-35.86,6.33-7.41,12.83-14.68,21.08-20.05,11.45-7.46,21.14-6.13,28.25,3.68,6.47,8.92,4.59,17.18-6.44,25.75C481,172.3,466.48,177.92,452.81,185c-6.55,3.41-13.31,6.48-18.75,11.63-6.82,6.44-6.4,11.91,1.14,17.33a18.76,18.76,0,0,0,18.18,2.43c6.94-2.49,13.73-5.39,20.65-7.95,6.06-2.24,11.3-1.46,14.45,4.93s1.74,11.92-4.13,15.78a70.08,70.08,0,0,1-11.7,5.73c-7.43,3.09-15.07,5.66-22.41,8.94-8.49,3.78-12,10.3-9.37,19.63,2.8,9.88,9.21,15,18.83,14.77,10-.26,18.81-4.6,27.6-8.78,11.2-5.33,22-11.52,33.5-16.18,16.62-6.76,22.81-2.92,25.67,14.51a52.33,52.33,0,0,1,.6,9c-.16,11.83-5.19,17.25-17.21,17.48-7.34.14-14.72-.77-22.06-1.42-12.36-1.11-24.79-3.17-36.85,1.37-8.67,3.26-15.49,9.14-16,18.82-.5,9.52,7.86,12.62,14.91,15.53,17.49,7.2,36.26,9.56,54.58,13.59,10.15,2.23,20.44,4,29.9,8.59,4.75,2.29,8.95,5.12,7.21,11.51s-6.23,9.24-12.81,8.71c-7.54-.62-14.25-3.76-20.76-7.26-13.59-7.3-27-14.89-40.63-22.17a64,64,0,0,0-21.82-7.41c-11.67-1.52-18.44,2.31-23.42,12.94-1,2.12-1.59,4.46-2.8,6.43-8.75,14.22-8.26,18.88,4.47,29.39,11.69,9.64,25.25,16.5,38.12,24.38,7.45,4.56,15,9.09,20.61,15.92,3,3.66,6,7.85,2.83,12.74s-8.42,3.74-12.81,2.55c-7.94-2.15-14.31-7.24-20.19-12.83-9.73-9.24-19.22-18.75-29.09-27.84-6.69-6.16-14-11.68-23.31-13.26-7.07-1.2-13.34.24-17.89,6.4-4.69,6.36-3.41,12.49.4,18.72,5,8.16,12.11,14.25,19.25,20.38,14.22,12.22,30.46,22.22,42.22,37.16,8.68,11,5.65,21-7.29,26.45-6.44,2.71-11.73,1.06-16.58-3.42-6.55-6-10.53-13.81-14.42-21.63-6-12-11.91-24.05-18.11-35.94a41.25,41.25,0,0,0-10.84-13.1c-7.14-5.73-14.27-4.75-21.41-.21-7.5,4.76-7.18,11.84-4.37,18.71,3.16,7.74,7.6,14.95,11.05,22.58,3.11,6.9,6,14.25-3.18,19.12-7.2,3.81-13.23.9-18.14-9-4-8.11-7.21-16.62-11.19-24.74-3.85-7.84-9.75-13.18-19.25-10.92-9.92,2.35-12.59,9.89-12.7,19.13-.16,13,3.52,25.2,6.89,37.48,4.34,15.84,9.45,31.49,12.39,47.69,1.15,6.31,1.65,12.7.46,19-1.87,9.93-9.11,15.6-19.3,15.52-9-.07-14.91-5.36-16.34-15.78-1.56-11.36-.53-22.73.85-34.1,2.39-19.64,6.87-39,7.33-58.89.13-5.36.28-10.76-1.35-16-1.7-5.45-4.64-9.65-10.91-10.41-6.65-.81-11,2.49-13.76,8-3.68,7.27-4.41,15.43-6.47,23.2a107.29,107.29,0,0,1-4.85,15.28c-2.65,6.12-7.85,7.88-14.19,6.3-6.53-1.63-8-6.44-7.64-12.36.42-7.49,3.57-14.28,5.42-21.4,2.75-10.54,8.57-21.93-3-30.44-9.83-7.24-27.76-11.6-40.26-.54C210.82,427.38,209.93,426.76,210.41,424.67Z"/><path class="cls-1" d="M198.67,447c-6.59,14.74-11,30.23-15.95,45.54-2.69,8.3-5.53,16.54-9.68,24.25-9.15,17-22.83,19-36.72,5.33-5.81-5.7-6.95-12-3-19.12,4.16-7.42,10.13-13.29,16.5-18.8,15.73-13.59,32.32-26.2,46.94-41.07C200.13,443.12,200.27,444.65,198.67,447Z"/><path class="cls-1" d="M85.28,408.37C66.06,424.83,46.08,439.7,22,447.93a32,32,0,0,1-9.89,1.46c-5,.05-9.22-1.95-11.25-6.9S.6,433.3,4.35,429.85a27.41,27.41,0,0,1,5.58-4.24C33.54,413.52,59.24,410.55,85.28,408.37Z"/><path class="cls-1" d="M35.17,228.75c-.9,6-4.5,10.69-11.46,10.95s-11.26-4-12.16-10.85c-.78-6,5.71-12.55,11.79-12.56C29,216.29,35,222.24,35.17,228.75Z"/><path class="cls-1" d="M498.32,207.42c1.69-6.09,5.48-10.72,12.57-9.83,7.26.91,11.44,5.84,10.28,13.31-1,6.81-6,10.85-12.82,9.78C501.8,219.66,498,215,498.32,207.42Z"/><path class="cls-1" d="M198.67,447c-.2-1.49,0-3.16-1.87-3.87q6.8-9.24,13.61-18.47l2.35,2.18Z"/><path class="cls-1" d="M573,419.39c21.11,5.31,41.47,11.94,59.21,24.74a27.43,27.43,0,0,1,5.95,6.21c2.53,3.5,3.21,7.44.75,11.33s-6.32,4.76-10.6,3.84a22.93,22.93,0,0,1-5.75-1.81C602.32,453.14,587.46,436.59,573,419.39Z"/><path class="cls-1" d="M470.09,89.09c6.22-15.84,13.39-31,25.08-43.47a21.41,21.41,0,0,1,5.42-4c3-1.62,6.09-1.75,8.86.54s3.06,5.38,1.92,8.61a17.56,17.56,0,0,1-2,4.28C499.19,69.7,484.87,79.58,470.09,89.09Z"/><path class="cls-1" d="M338.47,20.93c-.9,6-4.5,10.68-11.46,11s-11.26-4-12.16-10.86c-.78-6,5.71-12.55,11.79-12.55C332.28,8.46,338.31,14.41,338.47,20.93Z"/><path class="cls-1" d="M382,537.3c7.44,11.44,14,23.17,16.65,36.62a17.09,17.09,0,0,1,.08,5.39c-.33,2.69-1.7,4.79-4.49,5.52s-4.93-.51-6.5-2.76a14.09,14.09,0,0,1-1.87-3.28C381.08,565.31,381.32,551.37,382,537.3Z"/><path class="cls-1" d="M58.39,77.92c5.54-3.81,10.27-1.34,14.47,2.27,12.29,10.57,20.48,24.25,28.3,38.33-15.13-7.47-30-15.2-41-28.39-1.71-2-2.44-4.91-3.63-7.4Z"/><path class="cls-1" d="M247.77,596c-.59,6.29-3,11.22-7.51,11.49s-7.37-4.18-8-11.39c-.51-6.26,3.74-13.18,7.72-13.18C243.71,582.91,247.66,589.16,247.77,596Z"/></g></g></svg>