<svg xmlns="http://www.w3.org/2000/svg" viewBox="0 0 442.05 414.08"><defs><style>.cls-1{fill:#25b899;}</style></defs><title>Middel 2</title><g id="Laag_2" data-name="Laag 2"><g id="Laag_1-2" data-name="Laag 1"><path class="cls-1" d="M275.52,0c5.9,4.07,5.24,9.73,3.24,15.29-5.86,16.28-16.39,29.65-27.45,42.81C253,40.17,255.05,22.43,264,6.45c1.4-2.49,4-4.32,6-6.45Z"/><path class="cls-1" d="M442.05,227.54c-3.71,4.11-8.52,4.9-13.7,4.46-17-1.47-32.46-8.07-47.88-15.2,12.62-3.21,25.32-3.72,38.14-3.42,8.55.2,16.77,1.15,23.44,7.29Z"/><path class="cls-1" d="M143.42,289.46c3.63-7.64,4.42-15.32.28-23-3.95-7.37-8.28-8.17-13.7-1.92-4.63,5.33-8.6,11.26-12.82,16.95a33.32,33.32,0,0,1-8.72,8.64c-3.94,2.5-7.73,2.21-11.49-.49-7.26-5.24-7.38-11,.37-15.48,7.31-4.21,15.34-7.17,22.64-11.39,9.82-5.69,10.32-12.24,2.66-20.54-4.47-4.84-9.22-4.91-14-1.19-5.21,4.08-9.87,8.85-14.93,13.13-2.57,2.17-5.69,5.05-8.78,1.13-2.67-3.38-2.46-7.29.62-10.64,2.39-2.6,5.63-3.87,8.79-5.19,5.49-2.28,11.16-4.17,16.47-6.81,8-4,10.55-9.48,8.8-17.28-1.71-7.62-6.59-11.47-15.44-11.87-8.31-.37-16.35,1.48-24.34,3.49-12.19,3.05-24.35,6.25-36.57,9.18a39,39,0,0,1-8.85.73c-5,0-9.22-1.54-10.14-7.14-.95-5.76.74-10.53,6.6-12.82,7.29-2.85,14.86-2,22.38-1.26,12.5,1.27,25,2.64,37.49,4,4.83.53,9.61-.11,14.34-.81a18.16,18.16,0,0,0,11.34-5.9c6.31-7.2,4.83-13.11-4.22-16-12.12-3.79-24.79-3.93-37.27-5.31-8.86-1-17.75-1.79-26.58-3a54.33,54.33,0,0,1-10.55-2.84c-2.41-.84-4.68-2.31-4.17-5.47.46-2.92,2.73-4.14,5.3-4.66a29.62,29.62,0,0,1,12.26.18c16.76,3.59,33.5,7.3,50.28,10.76a45.46,45.46,0,0,0,10.24.59c3.52-.07,7-.9,8.46-4.66s.26-7.17-2.31-10.16c-3.33-3.89-7.72-6.41-11.85-9.26-4-2.73-8.16-5.14-11.33-8.84-2.89-3.39-3.17-7-.5-10.66,2.57-3.5,6.15-4,9.77-2.26,4.08,2,7.84,4.67,11.8,6.95a56.58,56.58,0,0,0,8.47,4.45c4,1.46,7.67.44,10.49-2.94s2.84-7.3.37-10.76c-2.79-3.89-6.14-7.36-9.17-11.08-3.34-4.09-7.5-8.24-2.45-13.69,3.92-4.21,9.12-3.21,14.61,3,4.23,4.79,7.78,10.18,12,15,3.73,4.24,7.5,9.26,14.42,6.32,6-2.55,9.14-8.89,8.31-16.57-.65-6.07-3.23-11.49-6.51-16.45-6.3-9.53-13-18.81-19.49-28.21-4-5.83-8.16-11.57-10.31-18.49-1.76-5.68-.36-9.85,4.92-12.66,6-3.17,11.68-2.34,15.37,2.55s5,10.76,6.15,16.58c2,9.63,3.63,19.32,5.55,29a61.41,61.41,0,0,0,5.77,16.81c2.77,5.26,6.7,9.3,12.83,10.47,10.18,1.94,14.44-2.15,12.61-12.35-1-5.39-2.69-10.64-3.67-16-.67-3.75-1.64-7.94,2.39-10.63a6.6,6.6,0,0,1,7.2-.15c4,2.4,3.74,6.54,3.51,10.43-.32,5.71-1.07,11.39-1.31,17.09-.22,5.16,1,9.72,7.08,10.86s9.06-2.71,10.71-7.46c2-5.81,3.09-12,4.91-17.84,1.44-4.69,3.34-9.58,9.74-8.38,6.65,1.26,7.18,6.57,6.23,11.77-1.24,6.72-3.6,13.24-4.83,20-1,5.65-3.34,12.13,3.46,16,4.66,2.67,9.68-.07,14.82-7.93,3.63-5.54,6.86-11.34,10.27-17a29.92,29.92,0,0,1,6.92-8.45c2.5-2,5.31-2.65,8.31-1a7.27,7.27,0,0,1,3.89,8.06c-.69,4.64-3.24,8.5-5.55,12.44-3.7,6.3-8.12,12.2-10.77,19.09-1.75,4.53-2.43,9.3,2.25,12.34,4.48,2.89,7.78-.73,10.7-3.52,7.79-7.45,14-16.27,21-24.44,4.32-5.05,8.75-10,14.37-13.67,7.81-5.08,14.41-4.18,19.26,2.51,4.41,6.08,3.13,11.71-4.39,17.55-8.38,6.51-18.28,10.34-27.6,15.19-4.47,2.32-9.07,4.42-12.78,7.92-4.65,4.4-4.36,8.12.78,11.82A12.78,12.78,0,0,0,309,147.51c4.73-1.69,9.36-3.67,14.07-5.41,4.14-1.53,7.71-1,9.85,3.35s1.19,8.13-2.81,10.76a48.38,48.38,0,0,1-8,3.91c-5.06,2.1-10.27,3.85-15.27,6.09-5.79,2.58-8.2,7-6.39,13.38,1.91,6.74,6.28,10.24,12.84,10.07,6.83-.18,12.82-3.14,18.81-6,7.63-3.63,15-7.85,22.83-11,11.33-4.6,15.55-2,17.5,9.9a35,35,0,0,1,.41,6.14c-.11,8.07-3.54,11.76-11.73,11.92a140.6,140.6,0,0,1-15-1c-8.42-.76-16.9-2.16-25.11.93-5.91,2.22-10.57,6.23-10.92,12.83S315.45,222,320.25,224c11.93,4.91,24.72,6.51,37.21,9.26,6.91,1.52,13.93,2.74,20.38,5.85,3.24,1.57,6.1,3.49,4.91,7.85s-4.24,6.3-8.73,5.94c-5.14-.42-9.71-2.56-14.15-4.95-9.26-5-18.42-10.15-27.7-15.11a43.33,43.33,0,0,0-14.87-5c-7.95-1-12.56,1.57-16,8.82a42.92,42.92,0,0,1-1.91,4.38c-6,9.7-5.63,12.87,3.05,20,8,6.57,17.21,11.25,26,16.62,5.08,3.11,10.2,6.2,14.05,10.85,2.06,2.5,4.08,5.35,1.93,8.68s-5.74,2.55-8.73,1.74c-5.42-1.46-9.76-4.93-13.77-8.74-6.63-6.3-13.1-12.78-19.83-19-4.55-4.2-9.52-8-15.88-9-4.82-.81-9.1.17-12.19,4.37s-2.33,8.51.26,12.75c3.41,5.57,8.26,9.72,13.13,13.9,9.69,8.33,20.76,15.14,28.78,25.33,5.91,7.52,3.85,14.31-5,18-4.39,1.84-8,.72-11.3-2.34-4.47-4.12-7.18-9.41-9.84-14.74C286,311.24,282,303,277.76,294.93a28,28,0,0,0-7.38-8.92c-4.87-3.91-9.73-3.24-14.6-.15-5.11,3.25-4.89,8.07-3,12.75,2.15,5.28,5.18,10.19,7.53,15.4,2.12,4.7,4.11,9.71-2.16,13-4.91,2.59-9,.61-12.37-6.16-2.74-5.52-4.91-11.33-7.63-16.86-2.62-5.34-6.64-9-13.12-7.45-6.76,1.61-8.58,6.75-8.66,13.05-.1,8.84,2.41,17.17,4.7,25.54,3,10.8,6.45,21.46,8.45,32.51a35.53,35.53,0,0,1,.31,13c-1.27,6.77-6.21,10.63-13.15,10.58-6.13,0-10.16-3.65-11.14-10.75-1.07-7.75-.36-15.5.58-23.25,1.63-13.39,4.68-26.59,5-40.14.08-3.65.18-7.33-.93-10.88-1.16-3.72-3.16-6.58-7.43-7.1-4.53-.55-7.47,1.7-9.38,5.46-2.51,5-3,10.52-4.41,15.81a73.36,73.36,0,0,1-3.3,10.42c-1.81,4.17-5.35,5.37-9.68,4.29s-5.44-4.39-5.21-8.42c.29-5.11,2.43-9.73,3.7-14.59,1.87-7.18,5.84-14.94-2-20.74-6.7-4.94-18.92-7.91-27.44-.37-1.32.35-1.93-.07-1.6-1.49"/><path class="cls-1" d="M135.42,304.69c-4.49,10-7.51,20.6-10.88,31a98.59,98.59,0,0,1-6.6,16.53c-6.23,11.59-15.55,12.92-25,3.63-4-3.89-4.73-8.19-2-13,2.84-5.06,6.9-9.07,11.25-12.82,10.72-9.26,22-17.86,32-28,2.27,0,2.37,1,1.28,2.64"/><path class="cls-1" d="M58.13,278.35C45,289.57,31.41,299.7,15,305.31a21.54,21.54,0,0,1-6.74,1c-3.42,0-6.28-1.33-7.67-4.7S.41,295.34,3,293a18.26,18.26,0,0,1,3.8-2.89c16.09-8.24,33.61-10.27,51.36-11.75"/><path class="cls-1" d="M24,155.92c-.61,4.08-3.06,7.28-7.81,7.46S8.49,160.67,7.87,156c-.53-4.07,3.89-8.56,8-8.56,3.84,0,8,4,8.06,8.49"/><path class="cls-1" d="M339.66,141.38c1.15-4.15,3.73-7.31,8.56-6.7s7.8,4,7,9.07c-.72,4.64-4.09,7.4-8.74,6.67-4.47-.7-7.09-3.84-6.84-9"/><path class="cls-1" d="M135.42,304.69c-.14-1,0-2.16-1.28-2.64l9.28-12.59L145,291l-9.6,13.74"/><path class="cls-1" d="M390.56,285.86c14.38,3.62,28.26,8.14,40.36,16.86A19,19,0,0,1,435,307c1.73,2.38,2.19,5.07.51,7.72s-4.3,3.24-7.23,2.61a15.36,15.36,0,0,1-3.91-1.23c-13.79-7.19-23.92-18.48-33.78-30.2"/><path class="cls-1" d="M320.42,60.73c4.24-10.8,9.12-21.12,17.09-29.63a14.85,14.85,0,0,1,3.69-2.73,5.08,5.08,0,0,1,6.05.38c1.91,1.58,2.08,3.66,1.3,5.86a12.1,12.1,0,0,1-1.34,2.92c-7,10-16.72,16.71-26.79,23.2"/><path class="cls-1" d="M230.7,14.27c-.61,4.08-3.06,7.28-7.81,7.46s-7.67-2.72-8.29-7.4c-.53-4.06,3.89-8.56,8-8.56,3.85,0,8,4.05,8.06,8.5"/><path class="cls-1" d="M260.38,366.23c5.06,7.8,9.51,15.79,11.34,25a11.58,11.58,0,0,1,.06,3.67,4.07,4.07,0,0,1-3.06,3.77c-1.93.51-3.36-.35-4.44-1.88a10.16,10.16,0,0,1-1.27-2.24c-3.26-9.19-3.1-18.69-2.63-28.28"/><path class="cls-1" d="M39.8,53.11c3.77-2.6,7-.91,9.86,1.55C58,61.86,63.62,71.19,69,80.78,58.64,75.69,48.52,70.43,41,61.44c-1.17-1.4-1.67-3.36-2.48-5,.42-1.1.83-2.19,1.25-3.28"/><path class="cls-1" d="M168.88,406.24c-.4,4.28-2,7.65-5.11,7.83s-5-2.85-5.43-7.76c-.35-4.27,2.55-9,5.26-9,2.52,0,5.21,4.26,5.28,8.92"/></g></g></svg>